M48
; DRILL file {KiCad (7.0.0-0)} date Tuesday, June 13, 2023 at 01:01:29 PM
; FORMAT={-:-/ absolute / inch / decimal}
; #@! TF.CreationDate,2023-06-13T13:01:29-04:00
; #@! TF.GenerationSoftware,Kicad,Pcbnew,(7.0.0-0)
; #@! TF.FileFunction,Plated,1,2,PTH
FMAT,2
INCH
; #@! TA.AperFunction,Plated,PTH,ViaDrill
T1C0.0157
; #@! TA.AperFunction,Plated,PTH,ComponentDrill
T2C0.0394
%
G90
G05
T1
X4.5845Y-2.6893
X4.5845Y-2.8862
X4.5845Y-3.083
X4.5845Y-3.2799
X4.5845Y-3.4767
X5.5583Y-3.0861
X5.5583Y-3.283
X5.5583Y-3.4798
X5.5583Y-2.6924
X5.5583Y-2.8893
T2
X4.1732Y-2.2228
X4.1732Y-2.3228
X4.1732Y-2.4228
X4.1732Y-2.5228
X4.3272Y-5.2601
X4.4272Y-5.2601
X4.4732Y-4.2181
X4.4732Y-4.3181
X4.4732Y-4.4181
X4.4732Y-4.5181
X4.5272Y-5.2601
X4.6272Y-5.2601
X4.7032Y-4.9301
X4.8032Y-4.9301
X4.9032Y-4.9301
X5.0032Y-4.9301
X5.568Y-5.346
X5.668Y-5.346
X5.768Y-5.346
X5.868Y-5.346
X6.9461Y-2.9091
X7.0461Y-2.9091
X7.1461Y-2.9091
X7.2461Y-2.9091
X7.6212Y-4.1421
X7.6212Y-4.2421
X7.6212Y-4.3421
X7.6212Y-4.4421
X7.7569Y-1.9764
X7.7569Y-2.0764
X7.7569Y-2.1764
X7.7569Y-2.2764
X7.7972Y-3.4161
X7.7972Y-3.5161
X7.7972Y-3.6161
X7.7972Y-3.7161
X7.7992Y-4.9201
X7.7992Y-5.0201
X7.7992Y-5.1201
X7.7992Y-5.2201
X7.8512Y-4.4181
X7.8512Y-4.5181
X7.8512Y-4.6181
X7.8512Y-4.7181
T0
M30
