G04 #@! TF.GenerationSoftware,KiCad,Pcbnew,(7.0.0-0)*
G04 #@! TF.CreationDate,2023-06-13T13:01:23-04:00*
G04 #@! TF.ProjectId,analog-capacitive-experiment,616e616c-6f67-42d6-9361-706163697469,rev?*
G04 #@! TF.SameCoordinates,Original*
G04 #@! TF.FileFunction,Legend,Top*
G04 #@! TF.FilePolarity,Positive*
%FSLAX46Y46*%
G04 Gerber Fmt 4.6, Leading zero omitted, Abs format (unit mm)*
G04 Created by KiCad (PCBNEW (7.0.0-0)) date 2023-06-13 13:01:23*
%MOMM*%
%LPD*%
G01*
G04 APERTURE LIST*
%ADD10C,0.150000*%
%ADD11C,0.120000*%
G04 APERTURE END LIST*
D10*
X109000000Y-131000000D02*
X109000000Y-94000000D01*
X176000000Y-77000000D02*
X163000000Y-90000000D01*
X163000000Y-90000000D02*
X144000000Y-90000000D01*
X122000000Y-128000000D02*
X128000000Y-134000000D01*
X189000000Y-59000000D02*
X187000000Y-57000000D01*
X133991200Y-128679200D02*
X191395200Y-128679200D01*
X191395200Y-128679200D02*
X191395200Y-131066800D01*
X191395200Y-131066800D02*
X133991200Y-131066800D01*
X133991200Y-131066800D02*
X133991200Y-128679200D01*
X128000000Y-134000000D02*
X191000000Y-134000000D01*
X113264800Y-95202000D02*
X194443200Y-95202000D01*
X194443200Y-95202000D02*
X194443200Y-99723200D01*
X194443200Y-99723200D02*
X113264800Y-99723200D01*
X113264800Y-99723200D02*
X113264800Y-95202000D01*
X108000000Y-60000000D02*
X112000000Y-56000000D01*
X109000000Y-94000000D02*
X113000000Y-90000000D01*
X195000000Y-59000000D02*
X189000000Y-59000000D01*
X160870876Y-72791620D02*
X160918495Y-72744001D01*
X160918495Y-72744001D02*
X161013733Y-72696381D01*
X161013733Y-72696381D02*
X161251828Y-72696381D01*
X161251828Y-72696381D02*
X161347066Y-72744001D01*
X161347066Y-72744001D02*
X161394685Y-72791620D01*
X161394685Y-72791620D02*
X161442304Y-72886858D01*
X161442304Y-72886858D02*
X161442304Y-72982096D01*
X161442304Y-72982096D02*
X161394685Y-73124953D01*
X161394685Y-73124953D02*
X160823257Y-73696381D01*
X160823257Y-73696381D02*
X161442304Y-73696381D01*
X161870876Y-73696381D02*
X161870876Y-72696381D01*
X161870876Y-72696381D02*
X162204209Y-73410667D01*
X162204209Y-73410667D02*
X162537542Y-72696381D01*
X162537542Y-72696381D02*
X162537542Y-73696381D01*
X163013733Y-73696381D02*
X163013733Y-72696381D01*
X163013733Y-72696381D02*
X163347066Y-73410667D01*
X163347066Y-73410667D02*
X163680399Y-72696381D01*
X163680399Y-72696381D02*
X163680399Y-73696381D01*
X109805623Y-67947547D02*
X110424670Y-67947547D01*
X110424670Y-67947547D02*
X110091337Y-68328500D01*
X110091337Y-68328500D02*
X110234194Y-68328500D01*
X110234194Y-68328500D02*
X110329432Y-68376119D01*
X110329432Y-68376119D02*
X110377051Y-68423738D01*
X110377051Y-68423738D02*
X110424670Y-68518976D01*
X110424670Y-68518976D02*
X110424670Y-68757071D01*
X110424670Y-68757071D02*
X110377051Y-68852309D01*
X110377051Y-68852309D02*
X110329432Y-68899928D01*
X110329432Y-68899928D02*
X110234194Y-68947547D01*
X110234194Y-68947547D02*
X109948480Y-68947547D01*
X109948480Y-68947547D02*
X109853242Y-68899928D01*
X109853242Y-68899928D02*
X109805623Y-68852309D01*
X110853242Y-68852309D02*
X110900861Y-68899928D01*
X110900861Y-68899928D02*
X110853242Y-68947547D01*
X110853242Y-68947547D02*
X110805623Y-68899928D01*
X110805623Y-68899928D02*
X110853242Y-68852309D01*
X110853242Y-68852309D02*
X110853242Y-68947547D01*
X111805622Y-67947547D02*
X111329432Y-67947547D01*
X111329432Y-67947547D02*
X111281813Y-68423738D01*
X111281813Y-68423738D02*
X111329432Y-68376119D01*
X111329432Y-68376119D02*
X111424670Y-68328500D01*
X111424670Y-68328500D02*
X111662765Y-68328500D01*
X111662765Y-68328500D02*
X111758003Y-68376119D01*
X111758003Y-68376119D02*
X111805622Y-68423738D01*
X111805622Y-68423738D02*
X111853241Y-68518976D01*
X111853241Y-68518976D02*
X111853241Y-68757071D01*
X111853241Y-68757071D02*
X111805622Y-68852309D01*
X111805622Y-68852309D02*
X111758003Y-68899928D01*
X111758003Y-68899928D02*
X111662765Y-68947547D01*
X111662765Y-68947547D02*
X111424670Y-68947547D01*
X111424670Y-68947547D02*
X111329432Y-68899928D01*
X111329432Y-68899928D02*
X111281813Y-68852309D01*
X112281813Y-68947547D02*
X112281813Y-67947547D01*
X112281813Y-67947547D02*
X112615146Y-68661833D01*
X112615146Y-68661833D02*
X112948479Y-67947547D01*
X112948479Y-67947547D02*
X112948479Y-68947547D01*
X113424670Y-68947547D02*
X113424670Y-67947547D01*
X113424670Y-67947547D02*
X113758003Y-68661833D01*
X113758003Y-68661833D02*
X114091336Y-67947547D01*
X114091336Y-67947547D02*
X114091336Y-68947547D01*
X161442304Y-78725580D02*
X160870876Y-78725580D01*
X161156590Y-78725580D02*
X161156590Y-77725580D01*
X161156590Y-77725580D02*
X161061352Y-77868438D01*
X161061352Y-77868438D02*
X160966114Y-77963676D01*
X160966114Y-77963676D02*
X160870876Y-78011295D01*
X161870876Y-78725580D02*
X161870876Y-77725580D01*
X161870876Y-77725580D02*
X162204209Y-78439866D01*
X162204209Y-78439866D02*
X162537542Y-77725580D01*
X162537542Y-77725580D02*
X162537542Y-78725580D01*
X163013733Y-78725580D02*
X163013733Y-77725580D01*
X163013733Y-77725580D02*
X163347066Y-78439866D01*
X163347066Y-78439866D02*
X163680399Y-77725580D01*
X163680399Y-77725580D02*
X163680399Y-78725580D01*
X159368495Y-88374342D02*
X159416114Y-88421961D01*
X159416114Y-88421961D02*
X159368495Y-88469580D01*
X159368495Y-88469580D02*
X159320876Y-88421961D01*
X159320876Y-88421961D02*
X159368495Y-88374342D01*
X159368495Y-88374342D02*
X159368495Y-88469580D01*
X159797066Y-87564819D02*
X159844685Y-87517200D01*
X159844685Y-87517200D02*
X159939923Y-87469580D01*
X159939923Y-87469580D02*
X160178018Y-87469580D01*
X160178018Y-87469580D02*
X160273256Y-87517200D01*
X160273256Y-87517200D02*
X160320875Y-87564819D01*
X160320875Y-87564819D02*
X160368494Y-87660057D01*
X160368494Y-87660057D02*
X160368494Y-87755295D01*
X160368494Y-87755295D02*
X160320875Y-87898152D01*
X160320875Y-87898152D02*
X159749447Y-88469580D01*
X159749447Y-88469580D02*
X160368494Y-88469580D01*
X161273256Y-87469580D02*
X160797066Y-87469580D01*
X160797066Y-87469580D02*
X160749447Y-87945771D01*
X160749447Y-87945771D02*
X160797066Y-87898152D01*
X160797066Y-87898152D02*
X160892304Y-87850533D01*
X160892304Y-87850533D02*
X161130399Y-87850533D01*
X161130399Y-87850533D02*
X161225637Y-87898152D01*
X161225637Y-87898152D02*
X161273256Y-87945771D01*
X161273256Y-87945771D02*
X161320875Y-88041009D01*
X161320875Y-88041009D02*
X161320875Y-88279104D01*
X161320875Y-88279104D02*
X161273256Y-88374342D01*
X161273256Y-88374342D02*
X161225637Y-88421961D01*
X161225637Y-88421961D02*
X161130399Y-88469580D01*
X161130399Y-88469580D02*
X160892304Y-88469580D01*
X160892304Y-88469580D02*
X160797066Y-88421961D01*
X160797066Y-88421961D02*
X160749447Y-88374342D01*
X161749447Y-88469580D02*
X161749447Y-87469580D01*
X161749447Y-87469580D02*
X162082780Y-88183866D01*
X162082780Y-88183866D02*
X162416113Y-87469580D01*
X162416113Y-87469580D02*
X162416113Y-88469580D01*
X162892304Y-88469580D02*
X162892304Y-87469580D01*
X162892304Y-87469580D02*
X163225637Y-88183866D01*
X163225637Y-88183866D02*
X163558970Y-87469580D01*
X163558970Y-87469580D02*
X163558970Y-88469580D01*
X131028895Y-117850742D02*
X131076514Y-117898361D01*
X131076514Y-117898361D02*
X131028895Y-117945980D01*
X131028895Y-117945980D02*
X130981276Y-117898361D01*
X130981276Y-117898361D02*
X131028895Y-117850742D01*
X131028895Y-117850742D02*
X131028895Y-117945980D01*
X132028894Y-117945980D02*
X131457466Y-117945980D01*
X131743180Y-117945980D02*
X131743180Y-116945980D01*
X131743180Y-116945980D02*
X131647942Y-117088838D01*
X131647942Y-117088838D02*
X131552704Y-117184076D01*
X131552704Y-117184076D02*
X131457466Y-117231695D01*
X132933656Y-116945980D02*
X132457466Y-116945980D01*
X132457466Y-116945980D02*
X132409847Y-117422171D01*
X132409847Y-117422171D02*
X132457466Y-117374552D01*
X132457466Y-117374552D02*
X132552704Y-117326933D01*
X132552704Y-117326933D02*
X132790799Y-117326933D01*
X132790799Y-117326933D02*
X132886037Y-117374552D01*
X132886037Y-117374552D02*
X132933656Y-117422171D01*
X132933656Y-117422171D02*
X132981275Y-117517409D01*
X132981275Y-117517409D02*
X132981275Y-117755504D01*
X132981275Y-117755504D02*
X132933656Y-117850742D01*
X132933656Y-117850742D02*
X132886037Y-117898361D01*
X132886037Y-117898361D02*
X132790799Y-117945980D01*
X132790799Y-117945980D02*
X132552704Y-117945980D01*
X132552704Y-117945980D02*
X132457466Y-117898361D01*
X132457466Y-117898361D02*
X132409847Y-117850742D01*
X133362228Y-117041219D02*
X133409847Y-116993600D01*
X133409847Y-116993600D02*
X133505085Y-116945980D01*
X133505085Y-116945980D02*
X133743180Y-116945980D01*
X133743180Y-116945980D02*
X133838418Y-116993600D01*
X133838418Y-116993600D02*
X133886037Y-117041219D01*
X133886037Y-117041219D02*
X133933656Y-117136457D01*
X133933656Y-117136457D02*
X133933656Y-117231695D01*
X133933656Y-117231695D02*
X133886037Y-117374552D01*
X133886037Y-117374552D02*
X133314609Y-117945980D01*
X133314609Y-117945980D02*
X133933656Y-117945980D01*
X134790799Y-117279314D02*
X134790799Y-117945980D01*
X134552704Y-116898361D02*
X134314609Y-117612647D01*
X134314609Y-117612647D02*
X134933656Y-117612647D01*
X135914609Y-117945980D02*
X135914609Y-116945980D01*
X135914609Y-116945980D02*
X136247942Y-117660266D01*
X136247942Y-117660266D02*
X136581275Y-116945980D01*
X136581275Y-116945980D02*
X136581275Y-117945980D01*
X137057466Y-117945980D02*
X137057466Y-116945980D01*
X137057466Y-116945980D02*
X137390799Y-117660266D01*
X137390799Y-117660266D02*
X137724132Y-116945980D01*
X137724132Y-116945980D02*
X137724132Y-117945980D01*
X138657466Y-116945980D02*
X139228894Y-116945980D01*
X138943180Y-117945980D02*
X138943180Y-116945980D01*
X140133656Y-117945980D02*
X139800323Y-117469790D01*
X139562228Y-117945980D02*
X139562228Y-116945980D01*
X139562228Y-116945980D02*
X139943180Y-116945980D01*
X139943180Y-116945980D02*
X140038418Y-116993600D01*
X140038418Y-116993600D02*
X140086037Y-117041219D01*
X140086037Y-117041219D02*
X140133656Y-117136457D01*
X140133656Y-117136457D02*
X140133656Y-117279314D01*
X140133656Y-117279314D02*
X140086037Y-117374552D01*
X140086037Y-117374552D02*
X140038418Y-117422171D01*
X140038418Y-117422171D02*
X139943180Y-117469790D01*
X139943180Y-117469790D02*
X139562228Y-117469790D01*
X140514609Y-117660266D02*
X140990799Y-117660266D01*
X140419371Y-117945980D02*
X140752704Y-116945980D01*
X140752704Y-116945980D02*
X141086037Y-117945980D01*
X141990799Y-117850742D02*
X141943180Y-117898361D01*
X141943180Y-117898361D02*
X141800323Y-117945980D01*
X141800323Y-117945980D02*
X141705085Y-117945980D01*
X141705085Y-117945980D02*
X141562228Y-117898361D01*
X141562228Y-117898361D02*
X141466990Y-117803123D01*
X141466990Y-117803123D02*
X141419371Y-117707885D01*
X141419371Y-117707885D02*
X141371752Y-117517409D01*
X141371752Y-117517409D02*
X141371752Y-117374552D01*
X141371752Y-117374552D02*
X141419371Y-117184076D01*
X141419371Y-117184076D02*
X141466990Y-117088838D01*
X141466990Y-117088838D02*
X141562228Y-116993600D01*
X141562228Y-116993600D02*
X141705085Y-116945980D01*
X141705085Y-116945980D02*
X141800323Y-116945980D01*
X141800323Y-116945980D02*
X141943180Y-116993600D01*
X141943180Y-116993600D02*
X141990799Y-117041219D01*
X142419371Y-117945980D02*
X142419371Y-116945980D01*
X142990799Y-117945980D02*
X142562228Y-117374552D01*
X142990799Y-116945980D02*
X142419371Y-117517409D01*
X143924133Y-116945980D02*
X144162228Y-117945980D01*
X144162228Y-117945980D02*
X144352704Y-117231695D01*
X144352704Y-117231695D02*
X144543180Y-117945980D01*
X144543180Y-117945980D02*
X144781276Y-116945980D01*
X145162228Y-117945980D02*
X145162228Y-116945980D01*
X145638418Y-117945980D02*
X145638418Y-116945980D01*
X145638418Y-116945980D02*
X145876513Y-116945980D01*
X145876513Y-116945980D02*
X146019370Y-116993600D01*
X146019370Y-116993600D02*
X146114608Y-117088838D01*
X146114608Y-117088838D02*
X146162227Y-117184076D01*
X146162227Y-117184076D02*
X146209846Y-117374552D01*
X146209846Y-117374552D02*
X146209846Y-117517409D01*
X146209846Y-117517409D02*
X146162227Y-117707885D01*
X146162227Y-117707885D02*
X146114608Y-117803123D01*
X146114608Y-117803123D02*
X146019370Y-117898361D01*
X146019370Y-117898361D02*
X145876513Y-117945980D01*
X145876513Y-117945980D02*
X145638418Y-117945980D01*
X146495561Y-116945980D02*
X147066989Y-116945980D01*
X146781275Y-117945980D02*
X146781275Y-116945980D01*
X147400323Y-117945980D02*
X147400323Y-116945980D01*
X147400323Y-117422171D02*
X147971751Y-117422171D01*
X147971751Y-117945980D02*
X147971751Y-116945980D01*
X148952704Y-116945980D02*
X149619370Y-117945980D01*
X149619370Y-116945980D02*
X148952704Y-117945980D01*
X149905085Y-116945980D02*
X150571751Y-117945980D01*
X150571751Y-116945980D02*
X149905085Y-117945980D01*
X151552704Y-117850742D02*
X151600323Y-117898361D01*
X151600323Y-117898361D02*
X151552704Y-117945980D01*
X151552704Y-117945980D02*
X151505085Y-117898361D01*
X151505085Y-117898361D02*
X151552704Y-117850742D01*
X151552704Y-117850742D02*
X151552704Y-117945980D01*
X151933656Y-116945980D02*
X152552703Y-116945980D01*
X152552703Y-116945980D02*
X152219370Y-117326933D01*
X152219370Y-117326933D02*
X152362227Y-117326933D01*
X152362227Y-117326933D02*
X152457465Y-117374552D01*
X152457465Y-117374552D02*
X152505084Y-117422171D01*
X152505084Y-117422171D02*
X152552703Y-117517409D01*
X152552703Y-117517409D02*
X152552703Y-117755504D01*
X152552703Y-117755504D02*
X152505084Y-117850742D01*
X152505084Y-117850742D02*
X152457465Y-117898361D01*
X152457465Y-117898361D02*
X152362227Y-117945980D01*
X152362227Y-117945980D02*
X152076513Y-117945980D01*
X152076513Y-117945980D02*
X151981275Y-117898361D01*
X151981275Y-117898361D02*
X151933656Y-117850742D01*
X153171751Y-116945980D02*
X153266989Y-116945980D01*
X153266989Y-116945980D02*
X153362227Y-116993600D01*
X153362227Y-116993600D02*
X153409846Y-117041219D01*
X153409846Y-117041219D02*
X153457465Y-117136457D01*
X153457465Y-117136457D02*
X153505084Y-117326933D01*
X153505084Y-117326933D02*
X153505084Y-117565028D01*
X153505084Y-117565028D02*
X153457465Y-117755504D01*
X153457465Y-117755504D02*
X153409846Y-117850742D01*
X153409846Y-117850742D02*
X153362227Y-117898361D01*
X153362227Y-117898361D02*
X153266989Y-117945980D01*
X153266989Y-117945980D02*
X153171751Y-117945980D01*
X153171751Y-117945980D02*
X153076513Y-117898361D01*
X153076513Y-117898361D02*
X153028894Y-117850742D01*
X153028894Y-117850742D02*
X152981275Y-117755504D01*
X152981275Y-117755504D02*
X152933656Y-117565028D01*
X152933656Y-117565028D02*
X152933656Y-117326933D01*
X152933656Y-117326933D02*
X152981275Y-117136457D01*
X152981275Y-117136457D02*
X153028894Y-117041219D01*
X153028894Y-117041219D02*
X153076513Y-116993600D01*
X153076513Y-116993600D02*
X153171751Y-116945980D01*
X154362227Y-117279314D02*
X154362227Y-117945980D01*
X154124132Y-116898361D02*
X153886037Y-117612647D01*
X153886037Y-117612647D02*
X154505084Y-117612647D01*
X155028894Y-117374552D02*
X154933656Y-117326933D01*
X154933656Y-117326933D02*
X154886037Y-117279314D01*
X154886037Y-117279314D02*
X154838418Y-117184076D01*
X154838418Y-117184076D02*
X154838418Y-117136457D01*
X154838418Y-117136457D02*
X154886037Y-117041219D01*
X154886037Y-117041219D02*
X154933656Y-116993600D01*
X154933656Y-116993600D02*
X155028894Y-116945980D01*
X155028894Y-116945980D02*
X155219370Y-116945980D01*
X155219370Y-116945980D02*
X155314608Y-116993600D01*
X155314608Y-116993600D02*
X155362227Y-117041219D01*
X155362227Y-117041219D02*
X155409846Y-117136457D01*
X155409846Y-117136457D02*
X155409846Y-117184076D01*
X155409846Y-117184076D02*
X155362227Y-117279314D01*
X155362227Y-117279314D02*
X155314608Y-117326933D01*
X155314608Y-117326933D02*
X155219370Y-117374552D01*
X155219370Y-117374552D02*
X155028894Y-117374552D01*
X155028894Y-117374552D02*
X154933656Y-117422171D01*
X154933656Y-117422171D02*
X154886037Y-117469790D01*
X154886037Y-117469790D02*
X154838418Y-117565028D01*
X154838418Y-117565028D02*
X154838418Y-117755504D01*
X154838418Y-117755504D02*
X154886037Y-117850742D01*
X154886037Y-117850742D02*
X154933656Y-117898361D01*
X154933656Y-117898361D02*
X155028894Y-117945980D01*
X155028894Y-117945980D02*
X155219370Y-117945980D01*
X155219370Y-117945980D02*
X155314608Y-117898361D01*
X155314608Y-117898361D02*
X155362227Y-117850742D01*
X155362227Y-117850742D02*
X155409846Y-117755504D01*
X155409846Y-117755504D02*
X155409846Y-117565028D01*
X155409846Y-117565028D02*
X155362227Y-117469790D01*
X155362227Y-117469790D02*
X155314608Y-117422171D01*
X155314608Y-117422171D02*
X155219370Y-117374552D01*
X156438418Y-117945980D02*
X156438418Y-116945980D01*
X156438418Y-116945980D02*
X156771751Y-117660266D01*
X156771751Y-117660266D02*
X157105084Y-116945980D01*
X157105084Y-116945980D02*
X157105084Y-117945980D01*
X157581275Y-117945980D02*
X157581275Y-116945980D01*
X157581275Y-116945980D02*
X157914608Y-117660266D01*
X157914608Y-117660266D02*
X158247941Y-116945980D01*
X158247941Y-116945980D02*
X158247941Y-117945980D01*
X159276513Y-117898361D02*
X159419370Y-117945980D01*
X159419370Y-117945980D02*
X159657465Y-117945980D01*
X159657465Y-117945980D02*
X159752703Y-117898361D01*
X159752703Y-117898361D02*
X159800322Y-117850742D01*
X159800322Y-117850742D02*
X159847941Y-117755504D01*
X159847941Y-117755504D02*
X159847941Y-117660266D01*
X159847941Y-117660266D02*
X159800322Y-117565028D01*
X159800322Y-117565028D02*
X159752703Y-117517409D01*
X159752703Y-117517409D02*
X159657465Y-117469790D01*
X159657465Y-117469790D02*
X159466989Y-117422171D01*
X159466989Y-117422171D02*
X159371751Y-117374552D01*
X159371751Y-117374552D02*
X159324132Y-117326933D01*
X159324132Y-117326933D02*
X159276513Y-117231695D01*
X159276513Y-117231695D02*
X159276513Y-117136457D01*
X159276513Y-117136457D02*
X159324132Y-117041219D01*
X159324132Y-117041219D02*
X159371751Y-116993600D01*
X159371751Y-116993600D02*
X159466989Y-116945980D01*
X159466989Y-116945980D02*
X159705084Y-116945980D01*
X159705084Y-116945980D02*
X159847941Y-116993600D01*
X160276513Y-117945980D02*
X160276513Y-116945980D01*
X160276513Y-116945980D02*
X160657465Y-116945980D01*
X160657465Y-116945980D02*
X160752703Y-116993600D01*
X160752703Y-116993600D02*
X160800322Y-117041219D01*
X160800322Y-117041219D02*
X160847941Y-117136457D01*
X160847941Y-117136457D02*
X160847941Y-117279314D01*
X160847941Y-117279314D02*
X160800322Y-117374552D01*
X160800322Y-117374552D02*
X160752703Y-117422171D01*
X160752703Y-117422171D02*
X160657465Y-117469790D01*
X160657465Y-117469790D02*
X160276513Y-117469790D01*
X161228894Y-117660266D02*
X161705084Y-117660266D01*
X161133656Y-117945980D02*
X161466989Y-116945980D01*
X161466989Y-116945980D02*
X161800322Y-117945980D01*
X162705084Y-117850742D02*
X162657465Y-117898361D01*
X162657465Y-117898361D02*
X162514608Y-117945980D01*
X162514608Y-117945980D02*
X162419370Y-117945980D01*
X162419370Y-117945980D02*
X162276513Y-117898361D01*
X162276513Y-117898361D02*
X162181275Y-117803123D01*
X162181275Y-117803123D02*
X162133656Y-117707885D01*
X162133656Y-117707885D02*
X162086037Y-117517409D01*
X162086037Y-117517409D02*
X162086037Y-117374552D01*
X162086037Y-117374552D02*
X162133656Y-117184076D01*
X162133656Y-117184076D02*
X162181275Y-117088838D01*
X162181275Y-117088838D02*
X162276513Y-116993600D01*
X162276513Y-116993600D02*
X162419370Y-116945980D01*
X162419370Y-116945980D02*
X162514608Y-116945980D01*
X162514608Y-116945980D02*
X162657465Y-116993600D01*
X162657465Y-116993600D02*
X162705084Y-117041219D01*
X163133656Y-117945980D02*
X163133656Y-116945980D01*
X163609846Y-117945980D02*
X163609846Y-116945980D01*
X163609846Y-116945980D02*
X164181274Y-117945980D01*
X164181274Y-117945980D02*
X164181274Y-116945980D01*
X165181274Y-116993600D02*
X165086036Y-116945980D01*
X165086036Y-116945980D02*
X164943179Y-116945980D01*
X164943179Y-116945980D02*
X164800322Y-116993600D01*
X164800322Y-116993600D02*
X164705084Y-117088838D01*
X164705084Y-117088838D02*
X164657465Y-117184076D01*
X164657465Y-117184076D02*
X164609846Y-117374552D01*
X164609846Y-117374552D02*
X164609846Y-117517409D01*
X164609846Y-117517409D02*
X164657465Y-117707885D01*
X164657465Y-117707885D02*
X164705084Y-117803123D01*
X164705084Y-117803123D02*
X164800322Y-117898361D01*
X164800322Y-117898361D02*
X164943179Y-117945980D01*
X164943179Y-117945980D02*
X165038417Y-117945980D01*
X165038417Y-117945980D02*
X165181274Y-117898361D01*
X165181274Y-117898361D02*
X165228893Y-117850742D01*
X165228893Y-117850742D02*
X165228893Y-117517409D01*
X165228893Y-117517409D02*
X165038417Y-117517409D01*
X109853242Y-77948786D02*
X109900861Y-77901167D01*
X109900861Y-77901167D02*
X109996099Y-77853547D01*
X109996099Y-77853547D02*
X110234194Y-77853547D01*
X110234194Y-77853547D02*
X110329432Y-77901167D01*
X110329432Y-77901167D02*
X110377051Y-77948786D01*
X110377051Y-77948786D02*
X110424670Y-78044024D01*
X110424670Y-78044024D02*
X110424670Y-78139262D01*
X110424670Y-78139262D02*
X110377051Y-78282119D01*
X110377051Y-78282119D02*
X109805623Y-78853547D01*
X109805623Y-78853547D02*
X110424670Y-78853547D01*
X110853242Y-78758309D02*
X110900861Y-78805928D01*
X110900861Y-78805928D02*
X110853242Y-78853547D01*
X110853242Y-78853547D02*
X110805623Y-78805928D01*
X110805623Y-78805928D02*
X110853242Y-78758309D01*
X110853242Y-78758309D02*
X110853242Y-78853547D01*
X111805622Y-77853547D02*
X111329432Y-77853547D01*
X111329432Y-77853547D02*
X111281813Y-78329738D01*
X111281813Y-78329738D02*
X111329432Y-78282119D01*
X111329432Y-78282119D02*
X111424670Y-78234500D01*
X111424670Y-78234500D02*
X111662765Y-78234500D01*
X111662765Y-78234500D02*
X111758003Y-78282119D01*
X111758003Y-78282119D02*
X111805622Y-78329738D01*
X111805622Y-78329738D02*
X111853241Y-78424976D01*
X111853241Y-78424976D02*
X111853241Y-78663071D01*
X111853241Y-78663071D02*
X111805622Y-78758309D01*
X111805622Y-78758309D02*
X111758003Y-78805928D01*
X111758003Y-78805928D02*
X111662765Y-78853547D01*
X111662765Y-78853547D02*
X111424670Y-78853547D01*
X111424670Y-78853547D02*
X111329432Y-78805928D01*
X111329432Y-78805928D02*
X111281813Y-78758309D01*
X112281813Y-78853547D02*
X112281813Y-77853547D01*
X112281813Y-77853547D02*
X112615146Y-78567833D01*
X112615146Y-78567833D02*
X112948479Y-77853547D01*
X112948479Y-77853547D02*
X112948479Y-78853547D01*
X113424670Y-78853547D02*
X113424670Y-77853547D01*
X113424670Y-77853547D02*
X113758003Y-78567833D01*
X113758003Y-78567833D02*
X114091336Y-77853547D01*
X114091336Y-77853547D02*
X114091336Y-78853547D01*
X159368495Y-83345142D02*
X159416114Y-83392761D01*
X159416114Y-83392761D02*
X159368495Y-83440380D01*
X159368495Y-83440380D02*
X159320876Y-83392761D01*
X159320876Y-83392761D02*
X159368495Y-83345142D01*
X159368495Y-83345142D02*
X159368495Y-83440380D01*
X160320875Y-82440380D02*
X159844685Y-82440380D01*
X159844685Y-82440380D02*
X159797066Y-82916571D01*
X159797066Y-82916571D02*
X159844685Y-82868952D01*
X159844685Y-82868952D02*
X159939923Y-82821333D01*
X159939923Y-82821333D02*
X160178018Y-82821333D01*
X160178018Y-82821333D02*
X160273256Y-82868952D01*
X160273256Y-82868952D02*
X160320875Y-82916571D01*
X160320875Y-82916571D02*
X160368494Y-83011809D01*
X160368494Y-83011809D02*
X160368494Y-83249904D01*
X160368494Y-83249904D02*
X160320875Y-83345142D01*
X160320875Y-83345142D02*
X160273256Y-83392761D01*
X160273256Y-83392761D02*
X160178018Y-83440380D01*
X160178018Y-83440380D02*
X159939923Y-83440380D01*
X159939923Y-83440380D02*
X159844685Y-83392761D01*
X159844685Y-83392761D02*
X159797066Y-83345142D01*
X160797066Y-83440380D02*
X160797066Y-82440380D01*
X160797066Y-82440380D02*
X161130399Y-83154666D01*
X161130399Y-83154666D02*
X161463732Y-82440380D01*
X161463732Y-82440380D02*
X161463732Y-83440380D01*
X161939923Y-83440380D02*
X161939923Y-82440380D01*
X161939923Y-82440380D02*
X162273256Y-83154666D01*
X162273256Y-83154666D02*
X162606589Y-82440380D01*
X162606589Y-82440380D02*
X162606589Y-83440380D01*
X161347066Y-68152914D02*
X161347066Y-68819580D01*
X161108971Y-67771961D02*
X160870876Y-68486247D01*
X160870876Y-68486247D02*
X161489923Y-68486247D01*
X161870876Y-68819580D02*
X161870876Y-67819580D01*
X161870876Y-67819580D02*
X162204209Y-68533866D01*
X162204209Y-68533866D02*
X162537542Y-67819580D01*
X162537542Y-67819580D02*
X162537542Y-68819580D01*
X163013733Y-68819580D02*
X163013733Y-67819580D01*
X163013733Y-67819580D02*
X163347066Y-68533866D01*
X163347066Y-68533866D02*
X163680399Y-67819580D01*
X163680399Y-67819580D02*
X163680399Y-68819580D01*
X164286495Y-94083342D02*
X164334114Y-94130961D01*
X164334114Y-94130961D02*
X164286495Y-94178580D01*
X164286495Y-94178580D02*
X164238876Y-94130961D01*
X164238876Y-94130961D02*
X164286495Y-94083342D01*
X164286495Y-94083342D02*
X164286495Y-94178580D01*
X164715066Y-93273819D02*
X164762685Y-93226200D01*
X164762685Y-93226200D02*
X164857923Y-93178580D01*
X164857923Y-93178580D02*
X165096018Y-93178580D01*
X165096018Y-93178580D02*
X165191256Y-93226200D01*
X165191256Y-93226200D02*
X165238875Y-93273819D01*
X165238875Y-93273819D02*
X165286494Y-93369057D01*
X165286494Y-93369057D02*
X165286494Y-93464295D01*
X165286494Y-93464295D02*
X165238875Y-93607152D01*
X165238875Y-93607152D02*
X164667447Y-94178580D01*
X164667447Y-94178580D02*
X165286494Y-94178580D01*
X165715066Y-94178580D02*
X165715066Y-93178580D01*
X165715066Y-93178580D02*
X166048399Y-93892866D01*
X166048399Y-93892866D02*
X166381732Y-93178580D01*
X166381732Y-93178580D02*
X166381732Y-94178580D01*
X166857923Y-94178580D02*
X166857923Y-93178580D01*
X166857923Y-93178580D02*
X167191256Y-93892866D01*
X167191256Y-93892866D02*
X167524589Y-93178580D01*
X167524589Y-93178580D02*
X167524589Y-94178580D01*
X168457923Y-93178580D02*
X169029351Y-93178580D01*
X168743637Y-94178580D02*
X168743637Y-93178580D01*
X169934113Y-94178580D02*
X169600780Y-93702390D01*
X169362685Y-94178580D02*
X169362685Y-93178580D01*
X169362685Y-93178580D02*
X169743637Y-93178580D01*
X169743637Y-93178580D02*
X169838875Y-93226200D01*
X169838875Y-93226200D02*
X169886494Y-93273819D01*
X169886494Y-93273819D02*
X169934113Y-93369057D01*
X169934113Y-93369057D02*
X169934113Y-93511914D01*
X169934113Y-93511914D02*
X169886494Y-93607152D01*
X169886494Y-93607152D02*
X169838875Y-93654771D01*
X169838875Y-93654771D02*
X169743637Y-93702390D01*
X169743637Y-93702390D02*
X169362685Y-93702390D01*
X170315066Y-93892866D02*
X170791256Y-93892866D01*
X170219828Y-94178580D02*
X170553161Y-93178580D01*
X170553161Y-93178580D02*
X170886494Y-94178580D01*
X171791256Y-94083342D02*
X171743637Y-94130961D01*
X171743637Y-94130961D02*
X171600780Y-94178580D01*
X171600780Y-94178580D02*
X171505542Y-94178580D01*
X171505542Y-94178580D02*
X171362685Y-94130961D01*
X171362685Y-94130961D02*
X171267447Y-94035723D01*
X171267447Y-94035723D02*
X171219828Y-93940485D01*
X171219828Y-93940485D02*
X171172209Y-93750009D01*
X171172209Y-93750009D02*
X171172209Y-93607152D01*
X171172209Y-93607152D02*
X171219828Y-93416676D01*
X171219828Y-93416676D02*
X171267447Y-93321438D01*
X171267447Y-93321438D02*
X171362685Y-93226200D01*
X171362685Y-93226200D02*
X171505542Y-93178580D01*
X171505542Y-93178580D02*
X171600780Y-93178580D01*
X171600780Y-93178580D02*
X171743637Y-93226200D01*
X171743637Y-93226200D02*
X171791256Y-93273819D01*
X172219828Y-94178580D02*
X172219828Y-93178580D01*
X172791256Y-94178580D02*
X172362685Y-93607152D01*
X172791256Y-93178580D02*
X172219828Y-93750009D01*
X173724590Y-93178580D02*
X173962685Y-94178580D01*
X173962685Y-94178580D02*
X174153161Y-93464295D01*
X174153161Y-93464295D02*
X174343637Y-94178580D01*
X174343637Y-94178580D02*
X174581733Y-93178580D01*
X174962685Y-94178580D02*
X174962685Y-93178580D01*
X175438875Y-94178580D02*
X175438875Y-93178580D01*
X175438875Y-93178580D02*
X175676970Y-93178580D01*
X175676970Y-93178580D02*
X175819827Y-93226200D01*
X175819827Y-93226200D02*
X175915065Y-93321438D01*
X175915065Y-93321438D02*
X175962684Y-93416676D01*
X175962684Y-93416676D02*
X176010303Y-93607152D01*
X176010303Y-93607152D02*
X176010303Y-93750009D01*
X176010303Y-93750009D02*
X175962684Y-93940485D01*
X175962684Y-93940485D02*
X175915065Y-94035723D01*
X175915065Y-94035723D02*
X175819827Y-94130961D01*
X175819827Y-94130961D02*
X175676970Y-94178580D01*
X175676970Y-94178580D02*
X175438875Y-94178580D01*
X176296018Y-93178580D02*
X176867446Y-93178580D01*
X176581732Y-94178580D02*
X176581732Y-93178580D01*
X177200780Y-94178580D02*
X177200780Y-93178580D01*
X177200780Y-93654771D02*
X177772208Y-93654771D01*
X177772208Y-94178580D02*
X177772208Y-93178580D01*
X178848399Y-94083342D02*
X178896018Y-94130961D01*
X178896018Y-94130961D02*
X178848399Y-94178580D01*
X178848399Y-94178580D02*
X178800780Y-94130961D01*
X178800780Y-94130961D02*
X178848399Y-94083342D01*
X178848399Y-94083342D02*
X178848399Y-94178580D01*
X179800779Y-93178580D02*
X179324589Y-93178580D01*
X179324589Y-93178580D02*
X179276970Y-93654771D01*
X179276970Y-93654771D02*
X179324589Y-93607152D01*
X179324589Y-93607152D02*
X179419827Y-93559533D01*
X179419827Y-93559533D02*
X179657922Y-93559533D01*
X179657922Y-93559533D02*
X179753160Y-93607152D01*
X179753160Y-93607152D02*
X179800779Y-93654771D01*
X179800779Y-93654771D02*
X179848398Y-93750009D01*
X179848398Y-93750009D02*
X179848398Y-93988104D01*
X179848398Y-93988104D02*
X179800779Y-94083342D01*
X179800779Y-94083342D02*
X179753160Y-94130961D01*
X179753160Y-94130961D02*
X179657922Y-94178580D01*
X179657922Y-94178580D02*
X179419827Y-94178580D01*
X179419827Y-94178580D02*
X179324589Y-94130961D01*
X179324589Y-94130961D02*
X179276970Y-94083342D01*
X180276970Y-94178580D02*
X180276970Y-93178580D01*
X180276970Y-93178580D02*
X180610303Y-93892866D01*
X180610303Y-93892866D02*
X180943636Y-93178580D01*
X180943636Y-93178580D02*
X180943636Y-94178580D01*
X181419827Y-94178580D02*
X181419827Y-93178580D01*
X181419827Y-93178580D02*
X181753160Y-93892866D01*
X181753160Y-93892866D02*
X182086493Y-93178580D01*
X182086493Y-93178580D02*
X182086493Y-94178580D01*
X183115065Y-94130961D02*
X183257922Y-94178580D01*
X183257922Y-94178580D02*
X183496017Y-94178580D01*
X183496017Y-94178580D02*
X183591255Y-94130961D01*
X183591255Y-94130961D02*
X183638874Y-94083342D01*
X183638874Y-94083342D02*
X183686493Y-93988104D01*
X183686493Y-93988104D02*
X183686493Y-93892866D01*
X183686493Y-93892866D02*
X183638874Y-93797628D01*
X183638874Y-93797628D02*
X183591255Y-93750009D01*
X183591255Y-93750009D02*
X183496017Y-93702390D01*
X183496017Y-93702390D02*
X183305541Y-93654771D01*
X183305541Y-93654771D02*
X183210303Y-93607152D01*
X183210303Y-93607152D02*
X183162684Y-93559533D01*
X183162684Y-93559533D02*
X183115065Y-93464295D01*
X183115065Y-93464295D02*
X183115065Y-93369057D01*
X183115065Y-93369057D02*
X183162684Y-93273819D01*
X183162684Y-93273819D02*
X183210303Y-93226200D01*
X183210303Y-93226200D02*
X183305541Y-93178580D01*
X183305541Y-93178580D02*
X183543636Y-93178580D01*
X183543636Y-93178580D02*
X183686493Y-93226200D01*
X184115065Y-94178580D02*
X184115065Y-93178580D01*
X184115065Y-93178580D02*
X184496017Y-93178580D01*
X184496017Y-93178580D02*
X184591255Y-93226200D01*
X184591255Y-93226200D02*
X184638874Y-93273819D01*
X184638874Y-93273819D02*
X184686493Y-93369057D01*
X184686493Y-93369057D02*
X184686493Y-93511914D01*
X184686493Y-93511914D02*
X184638874Y-93607152D01*
X184638874Y-93607152D02*
X184591255Y-93654771D01*
X184591255Y-93654771D02*
X184496017Y-93702390D01*
X184496017Y-93702390D02*
X184115065Y-93702390D01*
X185067446Y-93892866D02*
X185543636Y-93892866D01*
X184972208Y-94178580D02*
X185305541Y-93178580D01*
X185305541Y-93178580D02*
X185638874Y-94178580D01*
X186543636Y-94083342D02*
X186496017Y-94130961D01*
X186496017Y-94130961D02*
X186353160Y-94178580D01*
X186353160Y-94178580D02*
X186257922Y-94178580D01*
X186257922Y-94178580D02*
X186115065Y-94130961D01*
X186115065Y-94130961D02*
X186019827Y-94035723D01*
X186019827Y-94035723D02*
X185972208Y-93940485D01*
X185972208Y-93940485D02*
X185924589Y-93750009D01*
X185924589Y-93750009D02*
X185924589Y-93607152D01*
X185924589Y-93607152D02*
X185972208Y-93416676D01*
X185972208Y-93416676D02*
X186019827Y-93321438D01*
X186019827Y-93321438D02*
X186115065Y-93226200D01*
X186115065Y-93226200D02*
X186257922Y-93178580D01*
X186257922Y-93178580D02*
X186353160Y-93178580D01*
X186353160Y-93178580D02*
X186496017Y-93226200D01*
X186496017Y-93226200D02*
X186543636Y-93273819D01*
X186972208Y-94178580D02*
X186972208Y-93178580D01*
X187448398Y-94178580D02*
X187448398Y-93178580D01*
X187448398Y-93178580D02*
X188019826Y-94178580D01*
X188019826Y-94178580D02*
X188019826Y-93178580D01*
X189019826Y-93226200D02*
X188924588Y-93178580D01*
X188924588Y-93178580D02*
X188781731Y-93178580D01*
X188781731Y-93178580D02*
X188638874Y-93226200D01*
X188638874Y-93226200D02*
X188543636Y-93321438D01*
X188543636Y-93321438D02*
X188496017Y-93416676D01*
X188496017Y-93416676D02*
X188448398Y-93607152D01*
X188448398Y-93607152D02*
X188448398Y-93750009D01*
X188448398Y-93750009D02*
X188496017Y-93940485D01*
X188496017Y-93940485D02*
X188543636Y-94035723D01*
X188543636Y-94035723D02*
X188638874Y-94130961D01*
X188638874Y-94130961D02*
X188781731Y-94178580D01*
X188781731Y-94178580D02*
X188876969Y-94178580D01*
X188876969Y-94178580D02*
X189019826Y-94130961D01*
X189019826Y-94130961D02*
X189067445Y-94083342D01*
X189067445Y-94083342D02*
X189067445Y-93750009D01*
X189067445Y-93750009D02*
X188876969Y-93750009D01*
X159473495Y-47876542D02*
X159521114Y-47924161D01*
X159521114Y-47924161D02*
X159473495Y-47971780D01*
X159473495Y-47971780D02*
X159425876Y-47924161D01*
X159425876Y-47924161D02*
X159473495Y-47876542D01*
X159473495Y-47876542D02*
X159473495Y-47971780D01*
X159902066Y-47067019D02*
X159949685Y-47019400D01*
X159949685Y-47019400D02*
X160044923Y-46971780D01*
X160044923Y-46971780D02*
X160283018Y-46971780D01*
X160283018Y-46971780D02*
X160378256Y-47019400D01*
X160378256Y-47019400D02*
X160425875Y-47067019D01*
X160425875Y-47067019D02*
X160473494Y-47162257D01*
X160473494Y-47162257D02*
X160473494Y-47257495D01*
X160473494Y-47257495D02*
X160425875Y-47400352D01*
X160425875Y-47400352D02*
X159854447Y-47971780D01*
X159854447Y-47971780D02*
X160473494Y-47971780D01*
X160902066Y-47971780D02*
X160902066Y-46971780D01*
X160902066Y-46971780D02*
X161235399Y-47686066D01*
X161235399Y-47686066D02*
X161568732Y-46971780D01*
X161568732Y-46971780D02*
X161568732Y-47971780D01*
X162044923Y-47971780D02*
X162044923Y-46971780D01*
X162044923Y-46971780D02*
X162378256Y-47686066D01*
X162378256Y-47686066D02*
X162711589Y-46971780D01*
X162711589Y-46971780D02*
X162711589Y-47971780D01*
X163644923Y-46971780D02*
X164216351Y-46971780D01*
X163930637Y-47971780D02*
X163930637Y-46971780D01*
X165121113Y-47971780D02*
X164787780Y-47495590D01*
X164549685Y-47971780D02*
X164549685Y-46971780D01*
X164549685Y-46971780D02*
X164930637Y-46971780D01*
X164930637Y-46971780D02*
X165025875Y-47019400D01*
X165025875Y-47019400D02*
X165073494Y-47067019D01*
X165073494Y-47067019D02*
X165121113Y-47162257D01*
X165121113Y-47162257D02*
X165121113Y-47305114D01*
X165121113Y-47305114D02*
X165073494Y-47400352D01*
X165073494Y-47400352D02*
X165025875Y-47447971D01*
X165025875Y-47447971D02*
X164930637Y-47495590D01*
X164930637Y-47495590D02*
X164549685Y-47495590D01*
X165502066Y-47686066D02*
X165978256Y-47686066D01*
X165406828Y-47971780D02*
X165740161Y-46971780D01*
X165740161Y-46971780D02*
X166073494Y-47971780D01*
X166978256Y-47876542D02*
X166930637Y-47924161D01*
X166930637Y-47924161D02*
X166787780Y-47971780D01*
X166787780Y-47971780D02*
X166692542Y-47971780D01*
X166692542Y-47971780D02*
X166549685Y-47924161D01*
X166549685Y-47924161D02*
X166454447Y-47828923D01*
X166454447Y-47828923D02*
X166406828Y-47733685D01*
X166406828Y-47733685D02*
X166359209Y-47543209D01*
X166359209Y-47543209D02*
X166359209Y-47400352D01*
X166359209Y-47400352D02*
X166406828Y-47209876D01*
X166406828Y-47209876D02*
X166454447Y-47114638D01*
X166454447Y-47114638D02*
X166549685Y-47019400D01*
X166549685Y-47019400D02*
X166692542Y-46971780D01*
X166692542Y-46971780D02*
X166787780Y-46971780D01*
X166787780Y-46971780D02*
X166930637Y-47019400D01*
X166930637Y-47019400D02*
X166978256Y-47067019D01*
X167406828Y-47971780D02*
X167406828Y-46971780D01*
X167978256Y-47971780D02*
X167549685Y-47400352D01*
X167978256Y-46971780D02*
X167406828Y-47543209D01*
X168911590Y-46971780D02*
X169149685Y-47971780D01*
X169149685Y-47971780D02*
X169340161Y-47257495D01*
X169340161Y-47257495D02*
X169530637Y-47971780D01*
X169530637Y-47971780D02*
X169768733Y-46971780D01*
X170149685Y-47971780D02*
X170149685Y-46971780D01*
X170625875Y-47971780D02*
X170625875Y-46971780D01*
X170625875Y-46971780D02*
X170863970Y-46971780D01*
X170863970Y-46971780D02*
X171006827Y-47019400D01*
X171006827Y-47019400D02*
X171102065Y-47114638D01*
X171102065Y-47114638D02*
X171149684Y-47209876D01*
X171149684Y-47209876D02*
X171197303Y-47400352D01*
X171197303Y-47400352D02*
X171197303Y-47543209D01*
X171197303Y-47543209D02*
X171149684Y-47733685D01*
X171149684Y-47733685D02*
X171102065Y-47828923D01*
X171102065Y-47828923D02*
X171006827Y-47924161D01*
X171006827Y-47924161D02*
X170863970Y-47971780D01*
X170863970Y-47971780D02*
X170625875Y-47971780D01*
X171483018Y-46971780D02*
X172054446Y-46971780D01*
X171768732Y-47971780D02*
X171768732Y-46971780D01*
X172387780Y-47971780D02*
X172387780Y-46971780D01*
X172387780Y-47447971D02*
X172959208Y-47447971D01*
X172959208Y-47971780D02*
X172959208Y-46971780D01*
X174035399Y-47876542D02*
X174083018Y-47924161D01*
X174083018Y-47924161D02*
X174035399Y-47971780D01*
X174035399Y-47971780D02*
X173987780Y-47924161D01*
X173987780Y-47924161D02*
X174035399Y-47876542D01*
X174035399Y-47876542D02*
X174035399Y-47971780D01*
X174987779Y-46971780D02*
X174511589Y-46971780D01*
X174511589Y-46971780D02*
X174463970Y-47447971D01*
X174463970Y-47447971D02*
X174511589Y-47400352D01*
X174511589Y-47400352D02*
X174606827Y-47352733D01*
X174606827Y-47352733D02*
X174844922Y-47352733D01*
X174844922Y-47352733D02*
X174940160Y-47400352D01*
X174940160Y-47400352D02*
X174987779Y-47447971D01*
X174987779Y-47447971D02*
X175035398Y-47543209D01*
X175035398Y-47543209D02*
X175035398Y-47781304D01*
X175035398Y-47781304D02*
X174987779Y-47876542D01*
X174987779Y-47876542D02*
X174940160Y-47924161D01*
X174940160Y-47924161D02*
X174844922Y-47971780D01*
X174844922Y-47971780D02*
X174606827Y-47971780D01*
X174606827Y-47971780D02*
X174511589Y-47924161D01*
X174511589Y-47924161D02*
X174463970Y-47876542D01*
X175463970Y-47971780D02*
X175463970Y-46971780D01*
X175463970Y-46971780D02*
X175797303Y-47686066D01*
X175797303Y-47686066D02*
X176130636Y-46971780D01*
X176130636Y-46971780D02*
X176130636Y-47971780D01*
X176606827Y-47971780D02*
X176606827Y-46971780D01*
X176606827Y-46971780D02*
X176940160Y-47686066D01*
X176940160Y-47686066D02*
X177273493Y-46971780D01*
X177273493Y-46971780D02*
X177273493Y-47971780D01*
X178302065Y-47924161D02*
X178444922Y-47971780D01*
X178444922Y-47971780D02*
X178683017Y-47971780D01*
X178683017Y-47971780D02*
X178778255Y-47924161D01*
X178778255Y-47924161D02*
X178825874Y-47876542D01*
X178825874Y-47876542D02*
X178873493Y-47781304D01*
X178873493Y-47781304D02*
X178873493Y-47686066D01*
X178873493Y-47686066D02*
X178825874Y-47590828D01*
X178825874Y-47590828D02*
X178778255Y-47543209D01*
X178778255Y-47543209D02*
X178683017Y-47495590D01*
X178683017Y-47495590D02*
X178492541Y-47447971D01*
X178492541Y-47447971D02*
X178397303Y-47400352D01*
X178397303Y-47400352D02*
X178349684Y-47352733D01*
X178349684Y-47352733D02*
X178302065Y-47257495D01*
X178302065Y-47257495D02*
X178302065Y-47162257D01*
X178302065Y-47162257D02*
X178349684Y-47067019D01*
X178349684Y-47067019D02*
X178397303Y-47019400D01*
X178397303Y-47019400D02*
X178492541Y-46971780D01*
X178492541Y-46971780D02*
X178730636Y-46971780D01*
X178730636Y-46971780D02*
X178873493Y-47019400D01*
X179302065Y-47971780D02*
X179302065Y-46971780D01*
X179302065Y-46971780D02*
X179683017Y-46971780D01*
X179683017Y-46971780D02*
X179778255Y-47019400D01*
X179778255Y-47019400D02*
X179825874Y-47067019D01*
X179825874Y-47067019D02*
X179873493Y-47162257D01*
X179873493Y-47162257D02*
X179873493Y-47305114D01*
X179873493Y-47305114D02*
X179825874Y-47400352D01*
X179825874Y-47400352D02*
X179778255Y-47447971D01*
X179778255Y-47447971D02*
X179683017Y-47495590D01*
X179683017Y-47495590D02*
X179302065Y-47495590D01*
X180254446Y-47686066D02*
X180730636Y-47686066D01*
X180159208Y-47971780D02*
X180492541Y-46971780D01*
X180492541Y-46971780D02*
X180825874Y-47971780D01*
X181730636Y-47876542D02*
X181683017Y-47924161D01*
X181683017Y-47924161D02*
X181540160Y-47971780D01*
X181540160Y-47971780D02*
X181444922Y-47971780D01*
X181444922Y-47971780D02*
X181302065Y-47924161D01*
X181302065Y-47924161D02*
X181206827Y-47828923D01*
X181206827Y-47828923D02*
X181159208Y-47733685D01*
X181159208Y-47733685D02*
X181111589Y-47543209D01*
X181111589Y-47543209D02*
X181111589Y-47400352D01*
X181111589Y-47400352D02*
X181159208Y-47209876D01*
X181159208Y-47209876D02*
X181206827Y-47114638D01*
X181206827Y-47114638D02*
X181302065Y-47019400D01*
X181302065Y-47019400D02*
X181444922Y-46971780D01*
X181444922Y-46971780D02*
X181540160Y-46971780D01*
X181540160Y-46971780D02*
X181683017Y-47019400D01*
X181683017Y-47019400D02*
X181730636Y-47067019D01*
X182159208Y-47971780D02*
X182159208Y-46971780D01*
X182635398Y-47971780D02*
X182635398Y-46971780D01*
X182635398Y-46971780D02*
X183206826Y-47971780D01*
X183206826Y-47971780D02*
X183206826Y-46971780D01*
X184206826Y-47019400D02*
X184111588Y-46971780D01*
X184111588Y-46971780D02*
X183968731Y-46971780D01*
X183968731Y-46971780D02*
X183825874Y-47019400D01*
X183825874Y-47019400D02*
X183730636Y-47114638D01*
X183730636Y-47114638D02*
X183683017Y-47209876D01*
X183683017Y-47209876D02*
X183635398Y-47400352D01*
X183635398Y-47400352D02*
X183635398Y-47543209D01*
X183635398Y-47543209D02*
X183683017Y-47733685D01*
X183683017Y-47733685D02*
X183730636Y-47828923D01*
X183730636Y-47828923D02*
X183825874Y-47924161D01*
X183825874Y-47924161D02*
X183968731Y-47971780D01*
X183968731Y-47971780D02*
X184063969Y-47971780D01*
X184063969Y-47971780D02*
X184206826Y-47924161D01*
X184206826Y-47924161D02*
X184254445Y-47876542D01*
X184254445Y-47876542D02*
X184254445Y-47543209D01*
X184254445Y-47543209D02*
X184063969Y-47543209D01*
X110310441Y-82673186D02*
X110358060Y-82625567D01*
X110358060Y-82625567D02*
X110453298Y-82577947D01*
X110453298Y-82577947D02*
X110691393Y-82577947D01*
X110691393Y-82577947D02*
X110786631Y-82625567D01*
X110786631Y-82625567D02*
X110834250Y-82673186D01*
X110834250Y-82673186D02*
X110881869Y-82768424D01*
X110881869Y-82768424D02*
X110881869Y-82863662D01*
X110881869Y-82863662D02*
X110834250Y-83006519D01*
X110834250Y-83006519D02*
X110262822Y-83577947D01*
X110262822Y-83577947D02*
X110881869Y-83577947D01*
X111310441Y-83577947D02*
X111310441Y-82577947D01*
X111310441Y-82577947D02*
X111643774Y-83292233D01*
X111643774Y-83292233D02*
X111977107Y-82577947D01*
X111977107Y-82577947D02*
X111977107Y-83577947D01*
X112453298Y-83577947D02*
X112453298Y-82577947D01*
X112453298Y-82577947D02*
X112786631Y-83292233D01*
X112786631Y-83292233D02*
X113119964Y-82577947D01*
X113119964Y-82577947D02*
X113119964Y-83577947D01*
X157740495Y-106445942D02*
X157788114Y-106493561D01*
X157788114Y-106493561D02*
X157740495Y-106541180D01*
X157740495Y-106541180D02*
X157692876Y-106493561D01*
X157692876Y-106493561D02*
X157740495Y-106445942D01*
X157740495Y-106445942D02*
X157740495Y-106541180D01*
X158169066Y-105636419D02*
X158216685Y-105588800D01*
X158216685Y-105588800D02*
X158311923Y-105541180D01*
X158311923Y-105541180D02*
X158550018Y-105541180D01*
X158550018Y-105541180D02*
X158645256Y-105588800D01*
X158645256Y-105588800D02*
X158692875Y-105636419D01*
X158692875Y-105636419D02*
X158740494Y-105731657D01*
X158740494Y-105731657D02*
X158740494Y-105826895D01*
X158740494Y-105826895D02*
X158692875Y-105969752D01*
X158692875Y-105969752D02*
X158121447Y-106541180D01*
X158121447Y-106541180D02*
X158740494Y-106541180D01*
X159169066Y-106541180D02*
X159169066Y-105541180D01*
X159169066Y-105541180D02*
X159502399Y-106255466D01*
X159502399Y-106255466D02*
X159835732Y-105541180D01*
X159835732Y-105541180D02*
X159835732Y-106541180D01*
X160311923Y-106541180D02*
X160311923Y-105541180D01*
X160311923Y-105541180D02*
X160645256Y-106255466D01*
X160645256Y-106255466D02*
X160978589Y-105541180D01*
X160978589Y-105541180D02*
X160978589Y-106541180D01*
X161911923Y-105541180D02*
X162483351Y-105541180D01*
X162197637Y-106541180D02*
X162197637Y-105541180D01*
X163388113Y-106541180D02*
X163054780Y-106064990D01*
X162816685Y-106541180D02*
X162816685Y-105541180D01*
X162816685Y-105541180D02*
X163197637Y-105541180D01*
X163197637Y-105541180D02*
X163292875Y-105588800D01*
X163292875Y-105588800D02*
X163340494Y-105636419D01*
X163340494Y-105636419D02*
X163388113Y-105731657D01*
X163388113Y-105731657D02*
X163388113Y-105874514D01*
X163388113Y-105874514D02*
X163340494Y-105969752D01*
X163340494Y-105969752D02*
X163292875Y-106017371D01*
X163292875Y-106017371D02*
X163197637Y-106064990D01*
X163197637Y-106064990D02*
X162816685Y-106064990D01*
X163769066Y-106255466D02*
X164245256Y-106255466D01*
X163673828Y-106541180D02*
X164007161Y-105541180D01*
X164007161Y-105541180D02*
X164340494Y-106541180D01*
X165245256Y-106445942D02*
X165197637Y-106493561D01*
X165197637Y-106493561D02*
X165054780Y-106541180D01*
X165054780Y-106541180D02*
X164959542Y-106541180D01*
X164959542Y-106541180D02*
X164816685Y-106493561D01*
X164816685Y-106493561D02*
X164721447Y-106398323D01*
X164721447Y-106398323D02*
X164673828Y-106303085D01*
X164673828Y-106303085D02*
X164626209Y-106112609D01*
X164626209Y-106112609D02*
X164626209Y-105969752D01*
X164626209Y-105969752D02*
X164673828Y-105779276D01*
X164673828Y-105779276D02*
X164721447Y-105684038D01*
X164721447Y-105684038D02*
X164816685Y-105588800D01*
X164816685Y-105588800D02*
X164959542Y-105541180D01*
X164959542Y-105541180D02*
X165054780Y-105541180D01*
X165054780Y-105541180D02*
X165197637Y-105588800D01*
X165197637Y-105588800D02*
X165245256Y-105636419D01*
X165673828Y-106541180D02*
X165673828Y-105541180D01*
X166245256Y-106541180D02*
X165816685Y-105969752D01*
X166245256Y-105541180D02*
X165673828Y-106112609D01*
X167178590Y-105541180D02*
X167416685Y-106541180D01*
X167416685Y-106541180D02*
X167607161Y-105826895D01*
X167607161Y-105826895D02*
X167797637Y-106541180D01*
X167797637Y-106541180D02*
X168035733Y-105541180D01*
X168416685Y-106541180D02*
X168416685Y-105541180D01*
X168892875Y-106541180D02*
X168892875Y-105541180D01*
X168892875Y-105541180D02*
X169130970Y-105541180D01*
X169130970Y-105541180D02*
X169273827Y-105588800D01*
X169273827Y-105588800D02*
X169369065Y-105684038D01*
X169369065Y-105684038D02*
X169416684Y-105779276D01*
X169416684Y-105779276D02*
X169464303Y-105969752D01*
X169464303Y-105969752D02*
X169464303Y-106112609D01*
X169464303Y-106112609D02*
X169416684Y-106303085D01*
X169416684Y-106303085D02*
X169369065Y-106398323D01*
X169369065Y-106398323D02*
X169273827Y-106493561D01*
X169273827Y-106493561D02*
X169130970Y-106541180D01*
X169130970Y-106541180D02*
X168892875Y-106541180D01*
X169750018Y-105541180D02*
X170321446Y-105541180D01*
X170035732Y-106541180D02*
X170035732Y-105541180D01*
X170654780Y-106541180D02*
X170654780Y-105541180D01*
X170654780Y-106017371D02*
X171226208Y-106017371D01*
X171226208Y-106541180D02*
X171226208Y-105541180D01*
X172302399Y-106445942D02*
X172350018Y-106493561D01*
X172350018Y-106493561D02*
X172302399Y-106541180D01*
X172302399Y-106541180D02*
X172254780Y-106493561D01*
X172254780Y-106493561D02*
X172302399Y-106445942D01*
X172302399Y-106445942D02*
X172302399Y-106541180D01*
X173254779Y-105541180D02*
X172778589Y-105541180D01*
X172778589Y-105541180D02*
X172730970Y-106017371D01*
X172730970Y-106017371D02*
X172778589Y-105969752D01*
X172778589Y-105969752D02*
X172873827Y-105922133D01*
X172873827Y-105922133D02*
X173111922Y-105922133D01*
X173111922Y-105922133D02*
X173207160Y-105969752D01*
X173207160Y-105969752D02*
X173254779Y-106017371D01*
X173254779Y-106017371D02*
X173302398Y-106112609D01*
X173302398Y-106112609D02*
X173302398Y-106350704D01*
X173302398Y-106350704D02*
X173254779Y-106445942D01*
X173254779Y-106445942D02*
X173207160Y-106493561D01*
X173207160Y-106493561D02*
X173111922Y-106541180D01*
X173111922Y-106541180D02*
X172873827Y-106541180D01*
X172873827Y-106541180D02*
X172778589Y-106493561D01*
X172778589Y-106493561D02*
X172730970Y-106445942D01*
X173730970Y-106541180D02*
X173730970Y-105541180D01*
X173730970Y-105541180D02*
X174064303Y-106255466D01*
X174064303Y-106255466D02*
X174397636Y-105541180D01*
X174397636Y-105541180D02*
X174397636Y-106541180D01*
X174873827Y-106541180D02*
X174873827Y-105541180D01*
X174873827Y-105541180D02*
X175207160Y-106255466D01*
X175207160Y-106255466D02*
X175540493Y-105541180D01*
X175540493Y-105541180D02*
X175540493Y-106541180D01*
X176569065Y-106493561D02*
X176711922Y-106541180D01*
X176711922Y-106541180D02*
X176950017Y-106541180D01*
X176950017Y-106541180D02*
X177045255Y-106493561D01*
X177045255Y-106493561D02*
X177092874Y-106445942D01*
X177092874Y-106445942D02*
X177140493Y-106350704D01*
X177140493Y-106350704D02*
X177140493Y-106255466D01*
X177140493Y-106255466D02*
X177092874Y-106160228D01*
X177092874Y-106160228D02*
X177045255Y-106112609D01*
X177045255Y-106112609D02*
X176950017Y-106064990D01*
X176950017Y-106064990D02*
X176759541Y-106017371D01*
X176759541Y-106017371D02*
X176664303Y-105969752D01*
X176664303Y-105969752D02*
X176616684Y-105922133D01*
X176616684Y-105922133D02*
X176569065Y-105826895D01*
X176569065Y-105826895D02*
X176569065Y-105731657D01*
X176569065Y-105731657D02*
X176616684Y-105636419D01*
X176616684Y-105636419D02*
X176664303Y-105588800D01*
X176664303Y-105588800D02*
X176759541Y-105541180D01*
X176759541Y-105541180D02*
X176997636Y-105541180D01*
X176997636Y-105541180D02*
X177140493Y-105588800D01*
X177569065Y-106541180D02*
X177569065Y-105541180D01*
X177569065Y-105541180D02*
X177950017Y-105541180D01*
X177950017Y-105541180D02*
X178045255Y-105588800D01*
X178045255Y-105588800D02*
X178092874Y-105636419D01*
X178092874Y-105636419D02*
X178140493Y-105731657D01*
X178140493Y-105731657D02*
X178140493Y-105874514D01*
X178140493Y-105874514D02*
X178092874Y-105969752D01*
X178092874Y-105969752D02*
X178045255Y-106017371D01*
X178045255Y-106017371D02*
X177950017Y-106064990D01*
X177950017Y-106064990D02*
X177569065Y-106064990D01*
X178521446Y-106255466D02*
X178997636Y-106255466D01*
X178426208Y-106541180D02*
X178759541Y-105541180D01*
X178759541Y-105541180D02*
X179092874Y-106541180D01*
X179997636Y-106445942D02*
X179950017Y-106493561D01*
X179950017Y-106493561D02*
X179807160Y-106541180D01*
X179807160Y-106541180D02*
X179711922Y-106541180D01*
X179711922Y-106541180D02*
X179569065Y-106493561D01*
X179569065Y-106493561D02*
X179473827Y-106398323D01*
X179473827Y-106398323D02*
X179426208Y-106303085D01*
X179426208Y-106303085D02*
X179378589Y-106112609D01*
X179378589Y-106112609D02*
X179378589Y-105969752D01*
X179378589Y-105969752D02*
X179426208Y-105779276D01*
X179426208Y-105779276D02*
X179473827Y-105684038D01*
X179473827Y-105684038D02*
X179569065Y-105588800D01*
X179569065Y-105588800D02*
X179711922Y-105541180D01*
X179711922Y-105541180D02*
X179807160Y-105541180D01*
X179807160Y-105541180D02*
X179950017Y-105588800D01*
X179950017Y-105588800D02*
X179997636Y-105636419D01*
X180426208Y-106541180D02*
X180426208Y-105541180D01*
X180902398Y-106541180D02*
X180902398Y-105541180D01*
X180902398Y-105541180D02*
X181473826Y-106541180D01*
X181473826Y-106541180D02*
X181473826Y-105541180D01*
X182473826Y-105588800D02*
X182378588Y-105541180D01*
X182378588Y-105541180D02*
X182235731Y-105541180D01*
X182235731Y-105541180D02*
X182092874Y-105588800D01*
X182092874Y-105588800D02*
X181997636Y-105684038D01*
X181997636Y-105684038D02*
X181950017Y-105779276D01*
X181950017Y-105779276D02*
X181902398Y-105969752D01*
X181902398Y-105969752D02*
X181902398Y-106112609D01*
X181902398Y-106112609D02*
X181950017Y-106303085D01*
X181950017Y-106303085D02*
X181997636Y-106398323D01*
X181997636Y-106398323D02*
X182092874Y-106493561D01*
X182092874Y-106493561D02*
X182235731Y-106541180D01*
X182235731Y-106541180D02*
X182330969Y-106541180D01*
X182330969Y-106541180D02*
X182473826Y-106493561D01*
X182473826Y-106493561D02*
X182521445Y-106445942D01*
X182521445Y-106445942D02*
X182521445Y-106112609D01*
X182521445Y-106112609D02*
X182330969Y-106112609D01*
X109805623Y-72824348D02*
X110424670Y-72824348D01*
X110424670Y-72824348D02*
X110091337Y-73205301D01*
X110091337Y-73205301D02*
X110234194Y-73205301D01*
X110234194Y-73205301D02*
X110329432Y-73252920D01*
X110329432Y-73252920D02*
X110377051Y-73300539D01*
X110377051Y-73300539D02*
X110424670Y-73395777D01*
X110424670Y-73395777D02*
X110424670Y-73633872D01*
X110424670Y-73633872D02*
X110377051Y-73729110D01*
X110377051Y-73729110D02*
X110329432Y-73776729D01*
X110329432Y-73776729D02*
X110234194Y-73824348D01*
X110234194Y-73824348D02*
X109948480Y-73824348D01*
X109948480Y-73824348D02*
X109853242Y-73776729D01*
X109853242Y-73776729D02*
X109805623Y-73729110D01*
X110853242Y-73824348D02*
X110853242Y-72824348D01*
X110853242Y-72824348D02*
X111186575Y-73538634D01*
X111186575Y-73538634D02*
X111519908Y-72824348D01*
X111519908Y-72824348D02*
X111519908Y-73824348D01*
X111996099Y-73824348D02*
X111996099Y-72824348D01*
X111996099Y-72824348D02*
X112329432Y-73538634D01*
X112329432Y-73538634D02*
X112662765Y-72824348D01*
X112662765Y-72824348D02*
X112662765Y-73824348D01*
X147423295Y-127093542D02*
X147470914Y-127141161D01*
X147470914Y-127141161D02*
X147423295Y-127188780D01*
X147423295Y-127188780D02*
X147375676Y-127141161D01*
X147375676Y-127141161D02*
X147423295Y-127093542D01*
X147423295Y-127093542D02*
X147423295Y-127188780D01*
X148423294Y-127188780D02*
X147851866Y-127188780D01*
X148137580Y-127188780D02*
X148137580Y-126188780D01*
X148137580Y-126188780D02*
X148042342Y-126331638D01*
X148042342Y-126331638D02*
X147947104Y-126426876D01*
X147947104Y-126426876D02*
X147851866Y-126474495D01*
X149328056Y-126188780D02*
X148851866Y-126188780D01*
X148851866Y-126188780D02*
X148804247Y-126664971D01*
X148804247Y-126664971D02*
X148851866Y-126617352D01*
X148851866Y-126617352D02*
X148947104Y-126569733D01*
X148947104Y-126569733D02*
X149185199Y-126569733D01*
X149185199Y-126569733D02*
X149280437Y-126617352D01*
X149280437Y-126617352D02*
X149328056Y-126664971D01*
X149328056Y-126664971D02*
X149375675Y-126760209D01*
X149375675Y-126760209D02*
X149375675Y-126998304D01*
X149375675Y-126998304D02*
X149328056Y-127093542D01*
X149328056Y-127093542D02*
X149280437Y-127141161D01*
X149280437Y-127141161D02*
X149185199Y-127188780D01*
X149185199Y-127188780D02*
X148947104Y-127188780D01*
X148947104Y-127188780D02*
X148851866Y-127141161D01*
X148851866Y-127141161D02*
X148804247Y-127093542D01*
X149756628Y-126284019D02*
X149804247Y-126236400D01*
X149804247Y-126236400D02*
X149899485Y-126188780D01*
X149899485Y-126188780D02*
X150137580Y-126188780D01*
X150137580Y-126188780D02*
X150232818Y-126236400D01*
X150232818Y-126236400D02*
X150280437Y-126284019D01*
X150280437Y-126284019D02*
X150328056Y-126379257D01*
X150328056Y-126379257D02*
X150328056Y-126474495D01*
X150328056Y-126474495D02*
X150280437Y-126617352D01*
X150280437Y-126617352D02*
X149709009Y-127188780D01*
X149709009Y-127188780D02*
X150328056Y-127188780D01*
X151185199Y-126522114D02*
X151185199Y-127188780D01*
X150947104Y-126141161D02*
X150709009Y-126855447D01*
X150709009Y-126855447D02*
X151328056Y-126855447D01*
X152309009Y-127188780D02*
X152309009Y-126188780D01*
X152309009Y-126188780D02*
X152642342Y-126903066D01*
X152642342Y-126903066D02*
X152975675Y-126188780D01*
X152975675Y-126188780D02*
X152975675Y-127188780D01*
X153451866Y-127188780D02*
X153451866Y-126188780D01*
X153451866Y-126188780D02*
X153785199Y-126903066D01*
X153785199Y-126903066D02*
X154118532Y-126188780D01*
X154118532Y-126188780D02*
X154118532Y-127188780D01*
X155051866Y-126188780D02*
X155623294Y-126188780D01*
X155337580Y-127188780D02*
X155337580Y-126188780D01*
X156528056Y-127188780D02*
X156194723Y-126712590D01*
X155956628Y-127188780D02*
X155956628Y-126188780D01*
X155956628Y-126188780D02*
X156337580Y-126188780D01*
X156337580Y-126188780D02*
X156432818Y-126236400D01*
X156432818Y-126236400D02*
X156480437Y-126284019D01*
X156480437Y-126284019D02*
X156528056Y-126379257D01*
X156528056Y-126379257D02*
X156528056Y-126522114D01*
X156528056Y-126522114D02*
X156480437Y-126617352D01*
X156480437Y-126617352D02*
X156432818Y-126664971D01*
X156432818Y-126664971D02*
X156337580Y-126712590D01*
X156337580Y-126712590D02*
X155956628Y-126712590D01*
X156909009Y-126903066D02*
X157385199Y-126903066D01*
X156813771Y-127188780D02*
X157147104Y-126188780D01*
X157147104Y-126188780D02*
X157480437Y-127188780D01*
X158385199Y-127093542D02*
X158337580Y-127141161D01*
X158337580Y-127141161D02*
X158194723Y-127188780D01*
X158194723Y-127188780D02*
X158099485Y-127188780D01*
X158099485Y-127188780D02*
X157956628Y-127141161D01*
X157956628Y-127141161D02*
X157861390Y-127045923D01*
X157861390Y-127045923D02*
X157813771Y-126950685D01*
X157813771Y-126950685D02*
X157766152Y-126760209D01*
X157766152Y-126760209D02*
X157766152Y-126617352D01*
X157766152Y-126617352D02*
X157813771Y-126426876D01*
X157813771Y-126426876D02*
X157861390Y-126331638D01*
X157861390Y-126331638D02*
X157956628Y-126236400D01*
X157956628Y-126236400D02*
X158099485Y-126188780D01*
X158099485Y-126188780D02*
X158194723Y-126188780D01*
X158194723Y-126188780D02*
X158337580Y-126236400D01*
X158337580Y-126236400D02*
X158385199Y-126284019D01*
X158813771Y-127188780D02*
X158813771Y-126188780D01*
X159385199Y-127188780D02*
X158956628Y-126617352D01*
X159385199Y-126188780D02*
X158813771Y-126760209D01*
X160318533Y-126188780D02*
X160556628Y-127188780D01*
X160556628Y-127188780D02*
X160747104Y-126474495D01*
X160747104Y-126474495D02*
X160937580Y-127188780D01*
X160937580Y-127188780D02*
X161175676Y-126188780D01*
X161556628Y-127188780D02*
X161556628Y-126188780D01*
X162032818Y-127188780D02*
X162032818Y-126188780D01*
X162032818Y-126188780D02*
X162270913Y-126188780D01*
X162270913Y-126188780D02*
X162413770Y-126236400D01*
X162413770Y-126236400D02*
X162509008Y-126331638D01*
X162509008Y-126331638D02*
X162556627Y-126426876D01*
X162556627Y-126426876D02*
X162604246Y-126617352D01*
X162604246Y-126617352D02*
X162604246Y-126760209D01*
X162604246Y-126760209D02*
X162556627Y-126950685D01*
X162556627Y-126950685D02*
X162509008Y-127045923D01*
X162509008Y-127045923D02*
X162413770Y-127141161D01*
X162413770Y-127141161D02*
X162270913Y-127188780D01*
X162270913Y-127188780D02*
X162032818Y-127188780D01*
X162889961Y-126188780D02*
X163461389Y-126188780D01*
X163175675Y-127188780D02*
X163175675Y-126188780D01*
X163794723Y-127188780D02*
X163794723Y-126188780D01*
X163794723Y-126664971D02*
X164366151Y-126664971D01*
X164366151Y-127188780D02*
X164366151Y-126188780D01*
X165347104Y-126188780D02*
X166013770Y-127188780D01*
X166013770Y-126188780D02*
X165347104Y-127188780D01*
X166299485Y-126188780D02*
X166966151Y-127188780D01*
X166966151Y-126188780D02*
X166299485Y-127188780D01*
X167947104Y-127093542D02*
X167994723Y-127141161D01*
X167994723Y-127141161D02*
X167947104Y-127188780D01*
X167947104Y-127188780D02*
X167899485Y-127141161D01*
X167899485Y-127141161D02*
X167947104Y-127093542D01*
X167947104Y-127093542D02*
X167947104Y-127188780D01*
X168328056Y-126188780D02*
X168947103Y-126188780D01*
X168947103Y-126188780D02*
X168613770Y-126569733D01*
X168613770Y-126569733D02*
X168756627Y-126569733D01*
X168756627Y-126569733D02*
X168851865Y-126617352D01*
X168851865Y-126617352D02*
X168899484Y-126664971D01*
X168899484Y-126664971D02*
X168947103Y-126760209D01*
X168947103Y-126760209D02*
X168947103Y-126998304D01*
X168947103Y-126998304D02*
X168899484Y-127093542D01*
X168899484Y-127093542D02*
X168851865Y-127141161D01*
X168851865Y-127141161D02*
X168756627Y-127188780D01*
X168756627Y-127188780D02*
X168470913Y-127188780D01*
X168470913Y-127188780D02*
X168375675Y-127141161D01*
X168375675Y-127141161D02*
X168328056Y-127093542D01*
X169566151Y-126188780D02*
X169661389Y-126188780D01*
X169661389Y-126188780D02*
X169756627Y-126236400D01*
X169756627Y-126236400D02*
X169804246Y-126284019D01*
X169804246Y-126284019D02*
X169851865Y-126379257D01*
X169851865Y-126379257D02*
X169899484Y-126569733D01*
X169899484Y-126569733D02*
X169899484Y-126807828D01*
X169899484Y-126807828D02*
X169851865Y-126998304D01*
X169851865Y-126998304D02*
X169804246Y-127093542D01*
X169804246Y-127093542D02*
X169756627Y-127141161D01*
X169756627Y-127141161D02*
X169661389Y-127188780D01*
X169661389Y-127188780D02*
X169566151Y-127188780D01*
X169566151Y-127188780D02*
X169470913Y-127141161D01*
X169470913Y-127141161D02*
X169423294Y-127093542D01*
X169423294Y-127093542D02*
X169375675Y-126998304D01*
X169375675Y-126998304D02*
X169328056Y-126807828D01*
X169328056Y-126807828D02*
X169328056Y-126569733D01*
X169328056Y-126569733D02*
X169375675Y-126379257D01*
X169375675Y-126379257D02*
X169423294Y-126284019D01*
X169423294Y-126284019D02*
X169470913Y-126236400D01*
X169470913Y-126236400D02*
X169566151Y-126188780D01*
X170756627Y-126522114D02*
X170756627Y-127188780D01*
X170518532Y-126141161D02*
X170280437Y-126855447D01*
X170280437Y-126855447D02*
X170899484Y-126855447D01*
X171423294Y-126617352D02*
X171328056Y-126569733D01*
X171328056Y-126569733D02*
X171280437Y-126522114D01*
X171280437Y-126522114D02*
X171232818Y-126426876D01*
X171232818Y-126426876D02*
X171232818Y-126379257D01*
X171232818Y-126379257D02*
X171280437Y-126284019D01*
X171280437Y-126284019D02*
X171328056Y-126236400D01*
X171328056Y-126236400D02*
X171423294Y-126188780D01*
X171423294Y-126188780D02*
X171613770Y-126188780D01*
X171613770Y-126188780D02*
X171709008Y-126236400D01*
X171709008Y-126236400D02*
X171756627Y-126284019D01*
X171756627Y-126284019D02*
X171804246Y-126379257D01*
X171804246Y-126379257D02*
X171804246Y-126426876D01*
X171804246Y-126426876D02*
X171756627Y-126522114D01*
X171756627Y-126522114D02*
X171709008Y-126569733D01*
X171709008Y-126569733D02*
X171613770Y-126617352D01*
X171613770Y-126617352D02*
X171423294Y-126617352D01*
X171423294Y-126617352D02*
X171328056Y-126664971D01*
X171328056Y-126664971D02*
X171280437Y-126712590D01*
X171280437Y-126712590D02*
X171232818Y-126807828D01*
X171232818Y-126807828D02*
X171232818Y-126998304D01*
X171232818Y-126998304D02*
X171280437Y-127093542D01*
X171280437Y-127093542D02*
X171328056Y-127141161D01*
X171328056Y-127141161D02*
X171423294Y-127188780D01*
X171423294Y-127188780D02*
X171613770Y-127188780D01*
X171613770Y-127188780D02*
X171709008Y-127141161D01*
X171709008Y-127141161D02*
X171756627Y-127093542D01*
X171756627Y-127093542D02*
X171804246Y-126998304D01*
X171804246Y-126998304D02*
X171804246Y-126807828D01*
X171804246Y-126807828D02*
X171756627Y-126712590D01*
X171756627Y-126712590D02*
X171709008Y-126664971D01*
X171709008Y-126664971D02*
X171613770Y-126617352D01*
X172832818Y-127188780D02*
X172832818Y-126188780D01*
X172832818Y-126188780D02*
X173166151Y-126903066D01*
X173166151Y-126903066D02*
X173499484Y-126188780D01*
X173499484Y-126188780D02*
X173499484Y-127188780D01*
X173975675Y-127188780D02*
X173975675Y-126188780D01*
X173975675Y-126188780D02*
X174309008Y-126903066D01*
X174309008Y-126903066D02*
X174642341Y-126188780D01*
X174642341Y-126188780D02*
X174642341Y-127188780D01*
X175670913Y-127141161D02*
X175813770Y-127188780D01*
X175813770Y-127188780D02*
X176051865Y-127188780D01*
X176051865Y-127188780D02*
X176147103Y-127141161D01*
X176147103Y-127141161D02*
X176194722Y-127093542D01*
X176194722Y-127093542D02*
X176242341Y-126998304D01*
X176242341Y-126998304D02*
X176242341Y-126903066D01*
X176242341Y-126903066D02*
X176194722Y-126807828D01*
X176194722Y-126807828D02*
X176147103Y-126760209D01*
X176147103Y-126760209D02*
X176051865Y-126712590D01*
X176051865Y-126712590D02*
X175861389Y-126664971D01*
X175861389Y-126664971D02*
X175766151Y-126617352D01*
X175766151Y-126617352D02*
X175718532Y-126569733D01*
X175718532Y-126569733D02*
X175670913Y-126474495D01*
X175670913Y-126474495D02*
X175670913Y-126379257D01*
X175670913Y-126379257D02*
X175718532Y-126284019D01*
X175718532Y-126284019D02*
X175766151Y-126236400D01*
X175766151Y-126236400D02*
X175861389Y-126188780D01*
X175861389Y-126188780D02*
X176099484Y-126188780D01*
X176099484Y-126188780D02*
X176242341Y-126236400D01*
X176670913Y-127188780D02*
X176670913Y-126188780D01*
X176670913Y-126188780D02*
X177051865Y-126188780D01*
X177051865Y-126188780D02*
X177147103Y-126236400D01*
X177147103Y-126236400D02*
X177194722Y-126284019D01*
X177194722Y-126284019D02*
X177242341Y-126379257D01*
X177242341Y-126379257D02*
X177242341Y-126522114D01*
X177242341Y-126522114D02*
X177194722Y-126617352D01*
X177194722Y-126617352D02*
X177147103Y-126664971D01*
X177147103Y-126664971D02*
X177051865Y-126712590D01*
X177051865Y-126712590D02*
X176670913Y-126712590D01*
X177623294Y-126903066D02*
X178099484Y-126903066D01*
X177528056Y-127188780D02*
X177861389Y-126188780D01*
X177861389Y-126188780D02*
X178194722Y-127188780D01*
X179099484Y-127093542D02*
X179051865Y-127141161D01*
X179051865Y-127141161D02*
X178909008Y-127188780D01*
X178909008Y-127188780D02*
X178813770Y-127188780D01*
X178813770Y-127188780D02*
X178670913Y-127141161D01*
X178670913Y-127141161D02*
X178575675Y-127045923D01*
X178575675Y-127045923D02*
X178528056Y-126950685D01*
X178528056Y-126950685D02*
X178480437Y-126760209D01*
X178480437Y-126760209D02*
X178480437Y-126617352D01*
X178480437Y-126617352D02*
X178528056Y-126426876D01*
X178528056Y-126426876D02*
X178575675Y-126331638D01*
X178575675Y-126331638D02*
X178670913Y-126236400D01*
X178670913Y-126236400D02*
X178813770Y-126188780D01*
X178813770Y-126188780D02*
X178909008Y-126188780D01*
X178909008Y-126188780D02*
X179051865Y-126236400D01*
X179051865Y-126236400D02*
X179099484Y-126284019D01*
X179528056Y-127188780D02*
X179528056Y-126188780D01*
X180004246Y-127188780D02*
X180004246Y-126188780D01*
X180004246Y-126188780D02*
X180575674Y-127188780D01*
X180575674Y-127188780D02*
X180575674Y-126188780D01*
X181575674Y-126236400D02*
X181480436Y-126188780D01*
X181480436Y-126188780D02*
X181337579Y-126188780D01*
X181337579Y-126188780D02*
X181194722Y-126236400D01*
X181194722Y-126236400D02*
X181099484Y-126331638D01*
X181099484Y-126331638D02*
X181051865Y-126426876D01*
X181051865Y-126426876D02*
X181004246Y-126617352D01*
X181004246Y-126617352D02*
X181004246Y-126760209D01*
X181004246Y-126760209D02*
X181051865Y-126950685D01*
X181051865Y-126950685D02*
X181099484Y-127045923D01*
X181099484Y-127045923D02*
X181194722Y-127141161D01*
X181194722Y-127141161D02*
X181337579Y-127188780D01*
X181337579Y-127188780D02*
X181432817Y-127188780D01*
X181432817Y-127188780D02*
X181575674Y-127141161D01*
X181575674Y-127141161D02*
X181623293Y-127093542D01*
X181623293Y-127093542D02*
X181623293Y-126760209D01*
X181623293Y-126760209D02*
X181432817Y-126760209D01*
X110881869Y-88607147D02*
X110310441Y-88607147D01*
X110596155Y-88607147D02*
X110596155Y-87607147D01*
X110596155Y-87607147D02*
X110500917Y-87750005D01*
X110500917Y-87750005D02*
X110405679Y-87845243D01*
X110405679Y-87845243D02*
X110310441Y-87892862D01*
X111310441Y-88511909D02*
X111358060Y-88559528D01*
X111358060Y-88559528D02*
X111310441Y-88607147D01*
X111310441Y-88607147D02*
X111262822Y-88559528D01*
X111262822Y-88559528D02*
X111310441Y-88511909D01*
X111310441Y-88511909D02*
X111310441Y-88607147D01*
X112262821Y-87607147D02*
X111786631Y-87607147D01*
X111786631Y-87607147D02*
X111739012Y-88083338D01*
X111739012Y-88083338D02*
X111786631Y-88035719D01*
X111786631Y-88035719D02*
X111881869Y-87988100D01*
X111881869Y-87988100D02*
X112119964Y-87988100D01*
X112119964Y-87988100D02*
X112215202Y-88035719D01*
X112215202Y-88035719D02*
X112262821Y-88083338D01*
X112262821Y-88083338D02*
X112310440Y-88178576D01*
X112310440Y-88178576D02*
X112310440Y-88416671D01*
X112310440Y-88416671D02*
X112262821Y-88511909D01*
X112262821Y-88511909D02*
X112215202Y-88559528D01*
X112215202Y-88559528D02*
X112119964Y-88607147D01*
X112119964Y-88607147D02*
X111881869Y-88607147D01*
X111881869Y-88607147D02*
X111786631Y-88559528D01*
X111786631Y-88559528D02*
X111739012Y-88511909D01*
X112739012Y-88607147D02*
X112739012Y-87607147D01*
X112739012Y-87607147D02*
X113072345Y-88321433D01*
X113072345Y-88321433D02*
X113405678Y-87607147D01*
X113405678Y-87607147D02*
X113405678Y-88607147D01*
X113881869Y-88607147D02*
X113881869Y-87607147D01*
X113881869Y-87607147D02*
X114215202Y-88321433D01*
X114215202Y-88321433D02*
X114548535Y-87607147D01*
X114548535Y-87607147D02*
X114548535Y-88607147D01*
G04 #@! TO.C,REF\u002A\u002A*
X189198266Y-103138580D02*
X188864933Y-102662390D01*
X188626838Y-103138580D02*
X188626838Y-102138580D01*
X188626838Y-102138580D02*
X189007790Y-102138580D01*
X189007790Y-102138580D02*
X189103028Y-102186200D01*
X189103028Y-102186200D02*
X189150647Y-102233819D01*
X189150647Y-102233819D02*
X189198266Y-102329057D01*
X189198266Y-102329057D02*
X189198266Y-102471914D01*
X189198266Y-102471914D02*
X189150647Y-102567152D01*
X189150647Y-102567152D02*
X189103028Y-102614771D01*
X189103028Y-102614771D02*
X189007790Y-102662390D01*
X189007790Y-102662390D02*
X188626838Y-102662390D01*
X189626838Y-102614771D02*
X189960171Y-102614771D01*
X190103028Y-103138580D02*
X189626838Y-103138580D01*
X189626838Y-103138580D02*
X189626838Y-102138580D01*
X189626838Y-102138580D02*
X190103028Y-102138580D01*
X190864933Y-102614771D02*
X190531600Y-102614771D01*
X190531600Y-103138580D02*
X190531600Y-102138580D01*
X190531600Y-102138580D02*
X191007790Y-102138580D01*
X191531600Y-102138580D02*
X191531600Y-102376676D01*
X191293505Y-102281438D02*
X191531600Y-102376676D01*
X191531600Y-102376676D02*
X191769695Y-102281438D01*
X191388743Y-102567152D02*
X191531600Y-102376676D01*
X191531600Y-102376676D02*
X191674457Y-102567152D01*
X192293505Y-102138580D02*
X192293505Y-102376676D01*
X192055410Y-102281438D02*
X192293505Y-102376676D01*
X192293505Y-102376676D02*
X192531600Y-102281438D01*
X192150648Y-102567152D02*
X192293505Y-102376676D01*
X192293505Y-102376676D02*
X192436362Y-102567152D01*
X112287065Y-105177380D02*
X111953732Y-104701190D01*
X111715637Y-105177380D02*
X111715637Y-104177380D01*
X111715637Y-104177380D02*
X112096589Y-104177380D01*
X112096589Y-104177380D02*
X112191827Y-104225000D01*
X112191827Y-104225000D02*
X112239446Y-104272619D01*
X112239446Y-104272619D02*
X112287065Y-104367857D01*
X112287065Y-104367857D02*
X112287065Y-104510714D01*
X112287065Y-104510714D02*
X112239446Y-104605952D01*
X112239446Y-104605952D02*
X112191827Y-104653571D01*
X112191827Y-104653571D02*
X112096589Y-104701190D01*
X112096589Y-104701190D02*
X111715637Y-104701190D01*
X112715637Y-104653571D02*
X113048970Y-104653571D01*
X113191827Y-105177380D02*
X112715637Y-105177380D01*
X112715637Y-105177380D02*
X112715637Y-104177380D01*
X112715637Y-104177380D02*
X113191827Y-104177380D01*
X113953732Y-104653571D02*
X113620399Y-104653571D01*
X113620399Y-105177380D02*
X113620399Y-104177380D01*
X113620399Y-104177380D02*
X114096589Y-104177380D01*
X114620399Y-104177380D02*
X114620399Y-104415476D01*
X114382304Y-104320238D02*
X114620399Y-104415476D01*
X114620399Y-104415476D02*
X114858494Y-104320238D01*
X114477542Y-104605952D02*
X114620399Y-104415476D01*
X114620399Y-104415476D02*
X114763256Y-104605952D01*
X115382304Y-104177380D02*
X115382304Y-104415476D01*
X115144209Y-104320238D02*
X115382304Y-104415476D01*
X115382304Y-104415476D02*
X115620399Y-104320238D01*
X115239447Y-104605952D02*
X115382304Y-104415476D01*
X115382304Y-104415476D02*
X115525161Y-104605952D01*
X174467780Y-75225533D02*
X173991590Y-75558866D01*
X174467780Y-75796961D02*
X173467780Y-75796961D01*
X173467780Y-75796961D02*
X173467780Y-75416009D01*
X173467780Y-75416009D02*
X173515400Y-75320771D01*
X173515400Y-75320771D02*
X173563019Y-75273152D01*
X173563019Y-75273152D02*
X173658257Y-75225533D01*
X173658257Y-75225533D02*
X173801114Y-75225533D01*
X173801114Y-75225533D02*
X173896352Y-75273152D01*
X173896352Y-75273152D02*
X173943971Y-75320771D01*
X173943971Y-75320771D02*
X173991590Y-75416009D01*
X173991590Y-75416009D02*
X173991590Y-75796961D01*
X173943971Y-74796961D02*
X173943971Y-74463628D01*
X174467780Y-74320771D02*
X174467780Y-74796961D01*
X174467780Y-74796961D02*
X173467780Y-74796961D01*
X173467780Y-74796961D02*
X173467780Y-74320771D01*
X173943971Y-73558866D02*
X173943971Y-73892199D01*
X174467780Y-73892199D02*
X173467780Y-73892199D01*
X173467780Y-73892199D02*
X173467780Y-73416009D01*
X173467780Y-72892199D02*
X173705876Y-72892199D01*
X173610638Y-73130294D02*
X173705876Y-72892199D01*
X173705876Y-72892199D02*
X173610638Y-72654104D01*
X173896352Y-73035056D02*
X173705876Y-72892199D01*
X173705876Y-72892199D02*
X173896352Y-72749342D01*
X173467780Y-72130294D02*
X173705876Y-72130294D01*
X173610638Y-72368389D02*
X173705876Y-72130294D01*
X173705876Y-72130294D02*
X173610638Y-71892199D01*
X173896352Y-72273151D02*
X173705876Y-72130294D01*
X173705876Y-72130294D02*
X173896352Y-71987437D01*
X139464580Y-137121733D02*
X138988390Y-137455066D01*
X139464580Y-137693161D02*
X138464580Y-137693161D01*
X138464580Y-137693161D02*
X138464580Y-137312209D01*
X138464580Y-137312209D02*
X138512200Y-137216971D01*
X138512200Y-137216971D02*
X138559819Y-137169352D01*
X138559819Y-137169352D02*
X138655057Y-137121733D01*
X138655057Y-137121733D02*
X138797914Y-137121733D01*
X138797914Y-137121733D02*
X138893152Y-137169352D01*
X138893152Y-137169352D02*
X138940771Y-137216971D01*
X138940771Y-137216971D02*
X138988390Y-137312209D01*
X138988390Y-137312209D02*
X138988390Y-137693161D01*
X138940771Y-136693161D02*
X138940771Y-136359828D01*
X139464580Y-136216971D02*
X139464580Y-136693161D01*
X139464580Y-136693161D02*
X138464580Y-136693161D01*
X138464580Y-136693161D02*
X138464580Y-136216971D01*
X138940771Y-135455066D02*
X138940771Y-135788399D01*
X139464580Y-135788399D02*
X138464580Y-135788399D01*
X138464580Y-135788399D02*
X138464580Y-135312209D01*
X138464580Y-134788399D02*
X138702676Y-134788399D01*
X138607438Y-135026494D02*
X138702676Y-134788399D01*
X138702676Y-134788399D02*
X138607438Y-134550304D01*
X138893152Y-134931256D02*
X138702676Y-134788399D01*
X138702676Y-134788399D02*
X138893152Y-134645542D01*
X138464580Y-134026494D02*
X138702676Y-134026494D01*
X138607438Y-134264589D02*
X138702676Y-134026494D01*
X138702676Y-134026494D02*
X138607438Y-133788399D01*
X138893152Y-134169351D02*
X138702676Y-134026494D01*
X138702676Y-134026494D02*
X138893152Y-133883637D01*
X117499779Y-126558133D02*
X117023589Y-126891466D01*
X117499779Y-127129561D02*
X116499779Y-127129561D01*
X116499779Y-127129561D02*
X116499779Y-126748609D01*
X116499779Y-126748609D02*
X116547399Y-126653371D01*
X116547399Y-126653371D02*
X116595018Y-126605752D01*
X116595018Y-126605752D02*
X116690256Y-126558133D01*
X116690256Y-126558133D02*
X116833113Y-126558133D01*
X116833113Y-126558133D02*
X116928351Y-126605752D01*
X116928351Y-126605752D02*
X116975970Y-126653371D01*
X116975970Y-126653371D02*
X117023589Y-126748609D01*
X117023589Y-126748609D02*
X117023589Y-127129561D01*
X116975970Y-126129561D02*
X116975970Y-125796228D01*
X117499779Y-125653371D02*
X117499779Y-126129561D01*
X117499779Y-126129561D02*
X116499779Y-126129561D01*
X116499779Y-126129561D02*
X116499779Y-125653371D01*
X116975970Y-124891466D02*
X116975970Y-125224799D01*
X117499779Y-125224799D02*
X116499779Y-125224799D01*
X116499779Y-125224799D02*
X116499779Y-124748609D01*
X116499779Y-124224799D02*
X116737875Y-124224799D01*
X116642637Y-124462894D02*
X116737875Y-124224799D01*
X116737875Y-124224799D02*
X116642637Y-123986704D01*
X116928351Y-124367656D02*
X116737875Y-124224799D01*
X116737875Y-124224799D02*
X116928351Y-124081942D01*
X116499779Y-123462894D02*
X116737875Y-123462894D01*
X116642637Y-123700989D02*
X116737875Y-123462894D01*
X116737875Y-123462894D02*
X116642637Y-123224799D01*
X116928351Y-123605751D02*
X116737875Y-123462894D01*
X116737875Y-123462894D02*
X116928351Y-123320037D01*
G04 #@! TO.C,J1*
X105666666Y-53057380D02*
X105666666Y-53771666D01*
X105666666Y-53771666D02*
X105619047Y-53914523D01*
X105619047Y-53914523D02*
X105523809Y-54009761D01*
X105523809Y-54009761D02*
X105380952Y-54057380D01*
X105380952Y-54057380D02*
X105285714Y-54057380D01*
X106666666Y-54057380D02*
X106095238Y-54057380D01*
X106380952Y-54057380D02*
X106380952Y-53057380D01*
X106380952Y-53057380D02*
X106285714Y-53200238D01*
X106285714Y-53200238D02*
X106190476Y-53295476D01*
X106190476Y-53295476D02*
X106095238Y-53343095D01*
G04 #@! TO.C,REF\u002A\u002A*
X196767466Y-123008180D02*
X196434133Y-122531990D01*
X196196038Y-123008180D02*
X196196038Y-122008180D01*
X196196038Y-122008180D02*
X196576990Y-122008180D01*
X196576990Y-122008180D02*
X196672228Y-122055800D01*
X196672228Y-122055800D02*
X196719847Y-122103419D01*
X196719847Y-122103419D02*
X196767466Y-122198657D01*
X196767466Y-122198657D02*
X196767466Y-122341514D01*
X196767466Y-122341514D02*
X196719847Y-122436752D01*
X196719847Y-122436752D02*
X196672228Y-122484371D01*
X196672228Y-122484371D02*
X196576990Y-122531990D01*
X196576990Y-122531990D02*
X196196038Y-122531990D01*
X197196038Y-122484371D02*
X197529371Y-122484371D01*
X197672228Y-123008180D02*
X197196038Y-123008180D01*
X197196038Y-123008180D02*
X197196038Y-122008180D01*
X197196038Y-122008180D02*
X197672228Y-122008180D01*
X198434133Y-122484371D02*
X198100800Y-122484371D01*
X198100800Y-123008180D02*
X198100800Y-122008180D01*
X198100800Y-122008180D02*
X198576990Y-122008180D01*
X199100800Y-122008180D02*
X199100800Y-122246276D01*
X198862705Y-122151038D02*
X199100800Y-122246276D01*
X199100800Y-122246276D02*
X199338895Y-122151038D01*
X198957943Y-122436752D02*
X199100800Y-122246276D01*
X199100800Y-122246276D02*
X199243657Y-122436752D01*
X199862705Y-122008180D02*
X199862705Y-122246276D01*
X199624610Y-122151038D02*
X199862705Y-122246276D01*
X199862705Y-122246276D02*
X200100800Y-122151038D01*
X199719848Y-122436752D02*
X199862705Y-122246276D01*
X199862705Y-122246276D02*
X200005562Y-122436752D01*
G04 #@! TO.C,J2*
X196691666Y-46797380D02*
X196691666Y-47511666D01*
X196691666Y-47511666D02*
X196644047Y-47654523D01*
X196644047Y-47654523D02*
X196548809Y-47749761D01*
X196548809Y-47749761D02*
X196405952Y-47797380D01*
X196405952Y-47797380D02*
X196310714Y-47797380D01*
X197120238Y-46892619D02*
X197167857Y-46845000D01*
X197167857Y-46845000D02*
X197263095Y-46797380D01*
X197263095Y-46797380D02*
X197501190Y-46797380D01*
X197501190Y-46797380D02*
X197596428Y-46845000D01*
X197596428Y-46845000D02*
X197644047Y-46892619D01*
X197644047Y-46892619D02*
X197691666Y-46987857D01*
X197691666Y-46987857D02*
X197691666Y-47083095D01*
X197691666Y-47083095D02*
X197644047Y-47225952D01*
X197644047Y-47225952D02*
X197072619Y-47797380D01*
X197072619Y-47797380D02*
X197691666Y-47797380D01*
G04 #@! TO.C,REF\u002A\u002A*
X107949380Y-134940133D02*
X107473190Y-135273466D01*
X107949380Y-135511561D02*
X106949380Y-135511561D01*
X106949380Y-135511561D02*
X106949380Y-135130609D01*
X106949380Y-135130609D02*
X106997000Y-135035371D01*
X106997000Y-135035371D02*
X107044619Y-134987752D01*
X107044619Y-134987752D02*
X107139857Y-134940133D01*
X107139857Y-134940133D02*
X107282714Y-134940133D01*
X107282714Y-134940133D02*
X107377952Y-134987752D01*
X107377952Y-134987752D02*
X107425571Y-135035371D01*
X107425571Y-135035371D02*
X107473190Y-135130609D01*
X107473190Y-135130609D02*
X107473190Y-135511561D01*
X107425571Y-134511561D02*
X107425571Y-134178228D01*
X107949380Y-134035371D02*
X107949380Y-134511561D01*
X107949380Y-134511561D02*
X106949380Y-134511561D01*
X106949380Y-134511561D02*
X106949380Y-134035371D01*
X107425571Y-133273466D02*
X107425571Y-133606799D01*
X107949380Y-133606799D02*
X106949380Y-133606799D01*
X106949380Y-133606799D02*
X106949380Y-133130609D01*
X106949380Y-132606799D02*
X107187476Y-132606799D01*
X107092238Y-132844894D02*
X107187476Y-132606799D01*
X107187476Y-132606799D02*
X107092238Y-132368704D01*
X107377952Y-132749656D02*
X107187476Y-132606799D01*
X107187476Y-132606799D02*
X107377952Y-132463942D01*
X106949380Y-131844894D02*
X107187476Y-131844894D01*
X107092238Y-132082989D02*
X107187476Y-131844894D01*
X107187476Y-131844894D02*
X107092238Y-131606799D01*
X107377952Y-131987751D02*
X107187476Y-131844894D01*
X107187476Y-131844894D02*
X107377952Y-131702037D01*
X196716666Y-97086580D02*
X196383333Y-96610390D01*
X196145238Y-97086580D02*
X196145238Y-96086580D01*
X196145238Y-96086580D02*
X196526190Y-96086580D01*
X196526190Y-96086580D02*
X196621428Y-96134200D01*
X196621428Y-96134200D02*
X196669047Y-96181819D01*
X196669047Y-96181819D02*
X196716666Y-96277057D01*
X196716666Y-96277057D02*
X196716666Y-96419914D01*
X196716666Y-96419914D02*
X196669047Y-96515152D01*
X196669047Y-96515152D02*
X196621428Y-96562771D01*
X196621428Y-96562771D02*
X196526190Y-96610390D01*
X196526190Y-96610390D02*
X196145238Y-96610390D01*
X197145238Y-96562771D02*
X197478571Y-96562771D01*
X197621428Y-97086580D02*
X197145238Y-97086580D01*
X197145238Y-97086580D02*
X197145238Y-96086580D01*
X197145238Y-96086580D02*
X197621428Y-96086580D01*
X198383333Y-96562771D02*
X198050000Y-96562771D01*
X198050000Y-97086580D02*
X198050000Y-96086580D01*
X198050000Y-96086580D02*
X198526190Y-96086580D01*
X199050000Y-96086580D02*
X199050000Y-96324676D01*
X198811905Y-96229438D02*
X199050000Y-96324676D01*
X199050000Y-96324676D02*
X199288095Y-96229438D01*
X198907143Y-96515152D02*
X199050000Y-96324676D01*
X199050000Y-96324676D02*
X199192857Y-96515152D01*
X199811905Y-96086580D02*
X199811905Y-96324676D01*
X199573810Y-96229438D02*
X199811905Y-96324676D01*
X199811905Y-96324676D02*
X200050000Y-96229438D01*
X199669048Y-96515152D02*
X199811905Y-96324676D01*
X199811905Y-96324676D02*
X199954762Y-96515152D01*
X191903666Y-50879780D02*
X191570333Y-50403590D01*
X191332238Y-50879780D02*
X191332238Y-49879780D01*
X191332238Y-49879780D02*
X191713190Y-49879780D01*
X191713190Y-49879780D02*
X191808428Y-49927400D01*
X191808428Y-49927400D02*
X191856047Y-49975019D01*
X191856047Y-49975019D02*
X191903666Y-50070257D01*
X191903666Y-50070257D02*
X191903666Y-50213114D01*
X191903666Y-50213114D02*
X191856047Y-50308352D01*
X191856047Y-50308352D02*
X191808428Y-50355971D01*
X191808428Y-50355971D02*
X191713190Y-50403590D01*
X191713190Y-50403590D02*
X191332238Y-50403590D01*
X192332238Y-50355971D02*
X192665571Y-50355971D01*
X192808428Y-50879780D02*
X192332238Y-50879780D01*
X192332238Y-50879780D02*
X192332238Y-49879780D01*
X192332238Y-49879780D02*
X192808428Y-49879780D01*
X193570333Y-50355971D02*
X193237000Y-50355971D01*
X193237000Y-50879780D02*
X193237000Y-49879780D01*
X193237000Y-49879780D02*
X193713190Y-49879780D01*
X194237000Y-49879780D02*
X194237000Y-50117876D01*
X193998905Y-50022638D02*
X194237000Y-50117876D01*
X194237000Y-50117876D02*
X194475095Y-50022638D01*
X194094143Y-50308352D02*
X194237000Y-50117876D01*
X194237000Y-50117876D02*
X194379857Y-50308352D01*
X194998905Y-49879780D02*
X194998905Y-50117876D01*
X194760810Y-50022638D02*
X194998905Y-50117876D01*
X194998905Y-50117876D02*
X195237000Y-50022638D01*
X194856048Y-50308352D02*
X194998905Y-50117876D01*
X194998905Y-50117876D02*
X195141762Y-50308352D01*
X198088266Y-110257380D02*
X197754933Y-109781190D01*
X197516838Y-110257380D02*
X197516838Y-109257380D01*
X197516838Y-109257380D02*
X197897790Y-109257380D01*
X197897790Y-109257380D02*
X197993028Y-109305000D01*
X197993028Y-109305000D02*
X198040647Y-109352619D01*
X198040647Y-109352619D02*
X198088266Y-109447857D01*
X198088266Y-109447857D02*
X198088266Y-109590714D01*
X198088266Y-109590714D02*
X198040647Y-109685952D01*
X198040647Y-109685952D02*
X197993028Y-109733571D01*
X197993028Y-109733571D02*
X197897790Y-109781190D01*
X197897790Y-109781190D02*
X197516838Y-109781190D01*
X198516838Y-109733571D02*
X198850171Y-109733571D01*
X198993028Y-110257380D02*
X198516838Y-110257380D01*
X198516838Y-110257380D02*
X198516838Y-109257380D01*
X198516838Y-109257380D02*
X198993028Y-109257380D01*
X199754933Y-109733571D02*
X199421600Y-109733571D01*
X199421600Y-110257380D02*
X199421600Y-109257380D01*
X199421600Y-109257380D02*
X199897790Y-109257380D01*
X200421600Y-109257380D02*
X200421600Y-109495476D01*
X200183505Y-109400238D02*
X200421600Y-109495476D01*
X200421600Y-109495476D02*
X200659695Y-109400238D01*
X200278743Y-109685952D02*
X200421600Y-109495476D01*
X200421600Y-109495476D02*
X200564457Y-109685952D01*
X201183505Y-109257380D02*
X201183505Y-109495476D01*
X200945410Y-109400238D02*
X201183505Y-109495476D01*
X201183505Y-109495476D02*
X201421600Y-109400238D01*
X201040648Y-109685952D02*
X201183505Y-109495476D01*
X201183505Y-109495476D02*
X201326362Y-109685952D01*
D11*
X192249600Y-103879600D02*
X193579600Y-103879600D01*
X192249600Y-105209600D02*
X192249600Y-103879600D01*
X192249600Y-106479600D02*
X192249600Y-114159600D01*
X192249600Y-106479600D02*
X194909600Y-106479600D01*
X192249600Y-114159600D02*
X194909600Y-114159600D01*
X194909600Y-106479600D02*
X194909600Y-114159600D01*
X112290399Y-105810000D02*
X113620399Y-105810000D01*
X112290399Y-107140000D02*
X112290399Y-105810000D01*
X112290399Y-108410000D02*
X112290399Y-116090000D01*
X112290399Y-108410000D02*
X114950399Y-108410000D01*
X112290399Y-116090000D02*
X114950399Y-116090000D01*
X114950399Y-108410000D02*
X114950399Y-116090000D01*
X175100400Y-75222200D02*
X175100400Y-73892200D01*
X176430400Y-75222200D02*
X175100400Y-75222200D01*
X177700400Y-75222200D02*
X185380400Y-75222200D01*
X177700400Y-75222200D02*
X177700400Y-72562200D01*
X185380400Y-75222200D02*
X185380400Y-72562200D01*
X177700400Y-72562200D02*
X185380400Y-72562200D01*
X140097200Y-137118400D02*
X140097200Y-135788400D01*
X141427200Y-137118400D02*
X140097200Y-137118400D01*
X142697200Y-137118400D02*
X150377200Y-137118400D01*
X142697200Y-137118400D02*
X142697200Y-134458400D01*
X150377200Y-137118400D02*
X150377200Y-134458400D01*
X142697200Y-134458400D02*
X150377200Y-134458400D01*
X118132399Y-126554800D02*
X118132399Y-125224800D01*
X119462399Y-126554800D02*
X118132399Y-126554800D01*
X120732399Y-126554800D02*
X128412399Y-126554800D01*
X120732399Y-126554800D02*
X120732399Y-123894800D01*
X128412399Y-126554800D02*
X128412399Y-123894800D01*
X120732399Y-123894800D02*
X128412399Y-123894800D01*
G04 #@! TO.C,J1*
X104670000Y-57730000D02*
X104670000Y-65410000D01*
X104670000Y-57730000D02*
X107330000Y-57730000D01*
X104670000Y-65410000D02*
X107330000Y-65410000D01*
X106000000Y-55130000D02*
X107330000Y-55130000D01*
X107330000Y-55130000D02*
X107330000Y-56460000D01*
X107330000Y-57730000D02*
X107330000Y-65410000D01*
G04 #@! TO.C,REF\u002A\u002A*
X196770800Y-123640800D02*
X198100800Y-123640800D01*
X196770800Y-124970800D02*
X196770800Y-123640800D01*
X196770800Y-126240800D02*
X196770800Y-133920800D01*
X196770800Y-126240800D02*
X199430800Y-126240800D01*
X196770800Y-133920800D02*
X199430800Y-133920800D01*
X199430800Y-126240800D02*
X199430800Y-133920800D01*
G04 #@! TO.C,J2*
X195695000Y-51470000D02*
X195695000Y-59150000D01*
X195695000Y-51470000D02*
X198355000Y-51470000D01*
X195695000Y-59150000D02*
X198355000Y-59150000D01*
X197025000Y-48870000D02*
X198355000Y-48870000D01*
X198355000Y-48870000D02*
X198355000Y-50200000D01*
X198355000Y-51470000D02*
X198355000Y-59150000D01*
G04 #@! TO.C,REF\u002A\u002A*
X108582000Y-134936800D02*
X108582000Y-133606800D01*
X109912000Y-134936800D02*
X108582000Y-134936800D01*
X111182000Y-134936800D02*
X118862000Y-134936800D01*
X111182000Y-134936800D02*
X111182000Y-132276800D01*
X118862000Y-134936800D02*
X118862000Y-132276800D01*
X111182000Y-132276800D02*
X118862000Y-132276800D01*
X199380000Y-95719200D02*
X198050000Y-95719200D01*
X199380000Y-94389200D02*
X199380000Y-95719200D01*
X199380000Y-93119200D02*
X199380000Y-85439200D01*
X199380000Y-93119200D02*
X196720000Y-93119200D01*
X199380000Y-85439200D02*
X196720000Y-85439200D01*
X196720000Y-93119200D02*
X196720000Y-85439200D01*
X198091600Y-110890000D02*
X199421600Y-110890000D01*
X198091600Y-112220000D02*
X198091600Y-110890000D01*
X198091600Y-113490000D02*
X198091600Y-121170000D01*
X198091600Y-113490000D02*
X200751600Y-113490000D01*
X198091600Y-121170000D02*
X200751600Y-121170000D01*
X200751600Y-113490000D02*
X200751600Y-121170000D01*
G04 #@! TD*
M02*
